<?xml version="1.0" encoding="utf-8"?>
<!-- Generator: Adobe Illustrator 24.0.1, SVG Export Plug-In . SVG Version: 6.00 Build 0)  -->
<svg version="1.1" id="Layer_1" xmlns="http://www.w3.org/2000/svg" xmlns:xlink="http://www.w3.org/1999/xlink" x="0px" y="0px"
	 viewBox="0 0 500 460" style="enable-background:new 0 0 500 460;" xml:space="preserve">
<style type="text/css">
	.st0{fill:#C5EFFF;}
	.st1{opacity:0.7;fill:#C5EFFF;enable-background:new    ;}
	.st2{fill:none;stroke:#263238;stroke-linecap:round;stroke-linejoin:round;stroke-miterlimit:10;}
	.st3{fill:#F0FAFF;stroke:#000000;stroke-miterlimit:10;}
	.st4{fill:#263238;}
	.st5{fill:#FFFFFF;stroke:#263238;stroke-linecap:round;stroke-linejoin:round;stroke-miterlimit:10;}
	.st6{fill:#757575;stroke:#263238;stroke-linecap:round;stroke-linejoin:round;stroke-miterlimit:10;}
	.st7{fill:none;stroke:#FFFFFF;stroke-linecap:round;stroke-linejoin:round;stroke-miterlimit:10;}
	.st8{fill:none;stroke:#263238;stroke-width:0.5;stroke-miterlimit:10;}
	.st9{fill:#83C4FF;}
	.st10{opacity:0.3;clip-path:url(#SVGID_2_);fill-opacity:0.7;enable-background:new    ;}
	.st11{opacity:0.3;clip-path:url(#SVGID_4_);fill-opacity:0.7;enable-background:new    ;}
	.st12{fill:none;stroke:#000000;stroke-miterlimit:10;}
	.st13{fill:#BFBFBF;stroke:#263238;stroke-linecap:round;stroke-linejoin:round;stroke-miterlimit:10;}
	.st14{fill:#83C4FF;stroke:#000000;stroke-miterlimit:10;}
	.st15{fill:#BFBFBF;}
	.st16{opacity:0.2;clip-path:url(#SVGID_6_);fill-opacity:0.7;enable-background:new    ;}
	.st17{opacity:0.2;clip-path:url(#SVGID_8_);fill-opacity:0.7;enable-background:new    ;}
	.st18{opacity:0.2;clip-path:url(#SVGID_10_);fill-opacity:0.7;enable-background:new    ;}
	.st19{opacity:0.2;clip-path:url(#SVGID_12_);fill-opacity:0.7;enable-background:new    ;}
	.st20{opacity:0.4;clip-path:url(#SVGID_14_);fill:#FFFFFF;enable-background:new    ;}
	.st21{fill:#3B68BF;}
	.st22{opacity:0.4;clip-path:url(#SVGID_16_);fill:#3B68BF;stroke:#000000;stroke-miterlimit:10;enable-background:new    ;}
	.st23{clip-path:url(#SVGID_18_);fill:#3B68BF;stroke:#000000;stroke-miterlimit:10;}
	.st24{clip-path:url(#SVGID_20_);fill:#3B68BF;stroke:#000000;stroke-miterlimit:10;}
	.st25{clip-path:url(#SVGID_22_);fill:#3B68BF;stroke:#000000;stroke-miterlimit:10;}
	.st26{clip-path:url(#SVGID_24_);fill:#3B68BF;stroke:#000000;stroke-miterlimit:10;}
	.st27{clip-path:url(#SVGID_26_);fill:#3B68BF;stroke:#000000;stroke-miterlimit:10;}
	.st28{clip-path:url(#SVGID_28_);fill:none;stroke:#000000;stroke-miterlimit:10;}
	.st29{clip-path:url(#SVGID_30_);fill:#3B68BF;stroke:#000000;stroke-miterlimit:10;}
	.st30{clip-path:url(#SVGID_32_);fill:#3B68BF;stroke:#000000;stroke-miterlimit:10;}
	.st31{clip-path:url(#SVGID_34_);fill:#3B68BF;stroke:#000000;stroke-miterlimit:10;}
	.st32{clip-path:url(#SVGID_36_);fill:#3B68BF;stroke:#000000;stroke-miterlimit:10;}
	.st33{opacity:0.2;}
</style>
<g id="Background_Simple">
</g>
<g id="Window">
</g>
<g id="Book_shelf">
</g>
<g id="Screen">
</g>
<g>
	<path class="st0" d="M209.1,413.2C92.9,392.9,108.5,332.8,71.9,263.4S31,165.7,67.2,106.3c36.2-59.5,114.6-93,187.6-43.2
		c73,49.8,126.4,34.3,170.5,73.1s50.1,92.9-2.3,141.1S352.4,438.3,209.1,413.2z"/>
	<path class="st1" d="M209.1,413.2C92.9,392.9,108.5,332.8,71.9,263.4S31,165.7,67.2,106.3c36.2-59.5,114.6-93,187.6-43.2
		c73,49.8,126.4,34.3,170.5,73.1s50.1,92.9-2.3,141.1S352.4,438.3,209.1,413.2z"/>
</g>
<g>
	<polyline class="st2" points="67.8,255.8 67.8,86.3 82.2,86.3 	"/>
	<line class="st2" x1="67.8" y1="283.5" x2="67.8" y2="277.3"/>
	<polyline class="st2" points="119.3,86.3 268,86.3 268,305.2 67.8,305.2 	"/>
	<line class="st2" x1="101" y1="86.3" x2="114.1" y2="86.3"/>
	<rect x="75.3" y="93.8" class="st2" width="185.2" height="203.9"/>
	<polyline class="st2" points="251.8,108.1 251.8,187.4 83.9,187.4 83.9,180.2 	"/>
	<polyline class="st2" points="83.9,163.2 83.9,101.7 251.8,101.7 	"/>
	<line class="st2" x1="83.9" y1="174.6" x2="83.9" y2="167.6"/>
	<line class="st2" x1="223.5" y1="195.8" x2="260.5" y2="195.8"/>
	<line class="st2" x1="210.3" y1="195.8" x2="215.6" y2="195.8"/>
	<line class="st2" x1="75.3" y1="195.8" x2="204.1" y2="195.8"/>
	<polyline class="st2" points="158.6,187.4 158.6,183.6 174.1,183.6 174.1,185.8 167.9,185.8 167.9,187.4 	"/>
	<path class="st2" d="M75.6,264.1c0,0,2.6,1.9,4.4,13.7c0,0,3.1-18.8,6.9-19.1c3.8-0.3,3,12.2,3,12.2s0.6-6.2,3.6-5.9
		c2.9,0.3,0,12.7,0,12.7s3.5-9.7,6.9-9.5c3.4,0.2-2.2,17.6-2.2,17.6s8.6-6.2,12.1-3.2c3.5,3-1.9,10.7-1.9,10.7s12.3-2.7,14.3,4.6"/>
	<path class="st2" d="M122.5,291c0,0,5.4-3.5,9.6-1.9c0,0-2.7-4.1,0-6.6c2.7-2.5,6.1,6.6,6.1,6.6s0.4-15.3,5.8-14.5
		c5.4,0.8,0,14.5,0,14.5s9.6-8.5,11.9-5.5s-1.5,7.4-1.5,7.4s5.8-1.8,10,2.5c0,0,6.4-6.6,13.6-7.5c0,0-4.8-13.8-2.4-16.6
		s6.5,12.1,6.5,12.1s1.8-9.7,7.8-10.4c0,0-5-2.7-3.5-6.9s8.4,1,8.4,1s-2.8-7.3,1.6-9.3c4.5-2,6.4,6.1,6.4,6.1s1.3-8.5,6.5-8
		c5.3,0.5,3.6,10.2,3.6,10.2s5-7.7,7.7-7c5.3,1.6,3.7,13.8,3.7,13.8s7.4-5.2,9.4-2.8c2.1,2.6-7.8,9.2-7.8,9.2s7.4,0.8,12,5.1"/>
	<path class="st2" d="M260.5,266.9c0,0-0.9-7.8-8.6-8.2c-7.8-0.4,2.1,17,2.1,17s-6.4-5.3-8.7-3.7c-2.3,1.6,6.6,10.6,6.6,10.6
		s-4.3-3.9-8.7-2.7c-4.5,1.2,2.6,13.7,2.6,13.7s-9.3-2.4-19.7,2.3"/>
</g>
<g>
	<polyline class="st2" points="337.7,371.2 337.7,274.3 446.8,274.3 	"/>
	<polyline class="st2" points="442.8,284.3 346.5,284.3 346.5,374.5 	"/>
	<polyline class="st2" points="365.7,333.5 365.7,293.4 372,293.4 372,301.7 380.5,301.7 380.5,298 388,298 388,302.5 398.1,302.5 
		398.1,293.4 408.5,293.4 408.5,299.5 414.1,299.5 414.1,296 424.1,296 424.1,319.6 	"/>
	<line class="st2" x1="414.1" y1="299.5" x2="414.1" y2="333.5"/>
	<line class="st2" x1="409.3" y1="304.6" x2="409.3" y2="310.7"/>
	<line class="st2" x1="409.3" y1="315" x2="409.3" y2="340"/>
	<line class="st2" x1="398.1" y1="302.5" x2="398.1" y2="324.9"/>
	<line class="st2" x1="398.5" y1="332.3" x2="398.5" y2="339.3"/>
	<line class="st2" x1="388" y1="302.5" x2="388" y2="315"/>
	<line class="st2" x1="388" y1="322.7" x2="388" y2="349.1"/>
	<line class="st2" x1="380.5" y1="301.7" x2="380.5" y2="332.8"/>
	<line class="st2" x1="372" y1="301.7" x2="372" y2="313.5"/>
	<line class="st2" x1="372" y1="319.6" x2="372" y2="347.6"/>
	<line class="st2" x1="365.7" y1="339.3" x2="365.7" y2="351.9"/>
	<line class="st2" x1="352.7" y1="351.9" x2="429.3" y2="351.9"/>
	<line class="st2" x1="414.1" y1="351.9" x2="414.1" y2="343.8"/>
	<line class="st2" x1="398.5" y1="345.9" x2="398.5" y2="351.5"/>
	<line class="st2" x1="425" y1="306.4" x2="432.4" y2="306.4"/>
	<line class="st2" x1="353" y1="359" x2="424.1" y2="359"/>
	<polyline class="st2" points="368.3,379.5 368.3,370.1 381.5,370.1 381.5,376.2 392,376.2 392,388 398.1,388 398.1,370.5 
		411.6,370.5 411.6,374.5 419.9,374.5 	"/>
	<line class="st2" x1="411.6" y1="374.5" x2="411.6" y2="384.6"/>
	<line class="st2" x1="398.5" y1="392.3" x2="398.5" y2="399.1"/>
	<line class="st2" x1="392" y1="388" x2="392" y2="397"/>
	<line class="st2" x1="381.5" y1="376.2" x2="381.5" y2="381.3"/>
</g>
<rect x="210.3" y="67.6" class="st3" width="232.9" height="160.9"/>
<rect x="210.3" y="67.6" class="st4" width="232.9" height="15.9"/>
<g>
	<g>
		<path class="st5" d="M304.6,177.9l-5.5-7.6c0,0,0-4-0.2-4.8s-3.5-5.9-3.6-7.2s-0.2-1.7-0.2-1.7s-1.7,0.4-1.7,1.5
			c0,1,0.2,4.6,0.2,4.6s-4.4-2.6-4.9-3.3c-0.5-0.7-5.9-4.6-6.4-5.2s-2.6-0.6-2.8,0l0.3,0.7l-1.7,0.8l1.1,3.4c0,0-0.8,2-0.6,2.4
			c0.2,0.4,0.8,2.9,0.8,2.9s-0.4,0.4-0.3,1.7c0,1.3,7.3,8.1,8.7,8.8c1.4,0.7,5.3,1.9,5.3,1.9l4.6,5.9L304.6,177.9z"/>
		<path class="st2" d="M293.6,162.6c0,0-1.4,3-0.6,6.1"/>
		<path class="st2" d="M279.7,154.8c1.5,0.6,3.3,3.3,4.2,4.1c0.9,0.9,2.4,1.9,2.4,1.9"/>
		<path class="st2" d="M279.2,159c1.2-0.3,2,0.2,2,1.4c0,1.2,2.6,3,2.6,3"/>
		<path class="st2" d="M279.4,164.3c0,0,0.9-1.5,1.5-0.8c0.7,0.7,0.9,2.5,2.1,2.8"/>
	</g>
	<path class="st6" d="M375.6,169.6c0,0-19.2,1.2-23.4,2.9c-3.5,1.4-27.9,17.5-27.9,17.5s-14.4-10.8-18.5-14.5
		c-0.5-0.4-2.6-0.7-2.6-0.7l-2.2-1.5l-5.4,7.6l1.5,2.1c0,0,0.3,3.4,0.9,4.2c8.9,11.2,26,26.9,28.6,28.4c2.6,1.5,25.3-11.9,25.3-11.9
		l4.2,24.8h67.9c0,0-0.2-43.5-3-46.8c-2.9-3.3-35.6-16.4-35.6-16.4L375.6,169.6z"/>
	<path class="st5" d="M398.5,153.9c0,0-6.1,4.1-2.9,17.1c0,0-9.2,6.6-18.2-0.1c0,0,2.1-10.4,0-12.5"/>
	<path class="st2" d="M419.9,183.7c0,0-8.3,9.5-9.2,25.8"/>
	<g>
		<path class="st4" d="M383.5,127.7c0,0-5.4-0.8-7.3,5.9c-1.9,6.7,1.3,12.2,1.3,12.2l10-9.4L383.5,127.7z"/>
		<path class="st5" d="M396.7,157.8c7-8.3,11.9-22.2,1.4-27.8c-20.3-10.7-26.9,10.2-23.5,29.7c1,6,9.2,3.3,15.1,1.1"/>
		<path class="st2" d="M382.5,139.7c0,0,3.3,0.9,4.2,2.7"/>
		<path class="st2" d="M377.7,138.8c0,0-1.3-0.7-2.5,0.1"/>
		<path class="st4" d="M382.5,144.3c-0.1,0.6,0.2,1.1,0.6,1.1c0.4,0,0.7-0.4,0.8-1s-0.2-1.1-0.6-1.1S382.5,143.7,382.5,144.3z"/>
		<path class="st4" d="M375.2,142.5c-0.1,0.6,0.2,1.1,0.6,1.1c0.4,0,0.7-0.4,0.8-1s-0.2-1.1-0.6-1.1
			C375.6,141.5,375.3,141.9,375.2,142.5z"/>
		<path class="st4" d="M393.5,148.2c0,0-3.1,4.6-5.3,6c-2.1,1.5-4.6,0.9-4.6,0.9s-2.7-3.3-6.6-3.4c0,0-1.9-1.2-3.4-1.1l0.2-5.1
			c0,0-3,10.9-2.7,14.8c0.3,3.9,9.9,6.6,14.6,5.5c4.8-1.1,7.2-8.5,8.7-15.6C394.7,149.7,393.5,148.2,393.5,148.2z"/>
		<path class="st7" d="M374.3,154.3c0,0,3.8,1.8,7.1,1.4"/>
		<path class="st4" d="M396.7,134.4c1.2-1-2-5.2-3.7-5.1c-1.8,0.1-10.6,0.4-10.6,0.4s-1.9-9.7,12.9-4.4c2.4,0.8,3.2,3.1,5.4,4.3
			c2.2,1.1,5.1,7.2,4.3,12.4c-0.8,5.2-3.6,14.3-8.6,17c0,0-1.7-0.2-0.7-1.4c4.9-5.6-0.2-16.1-1.1-7.4l-1.7-1c0,0-0.1-0.4,0.3-2.8
			C393.5,144,390.9,139.1,396.7,134.4z"/>
		<path class="st5" d="M395.9,147.6c0,0,3.2-3.8,5.1-2.5c1.9,1.3,0.6,5.8-0.4,7s-1.9,1.4-3.3,3.2c-1.4,1.8-3.2,1.2-3-0.3"/>
		<path class="st8" d="M386.2,144.8c0.1,2.1-1.2,3.9-2.9,4c-1.7,0.1-3.2-1.6-3.3-3.7s1.2-3.9,2.9-4
			C384.6,141.1,386.1,142.7,386.2,144.8z"/>
		<path class="st8" d="M377.3,142.9c0.1,2.1-1.2,3.9-2.9,4c-1.7,0.1-3.2-1.6-3.3-3.7s1.2-3.9,2.9-4
			C375.7,139.1,377.1,140.8,377.3,142.9z"/>
		<path class="st5" d="M378.2,141.1c0,0.9-5,6.7-5.1,8c-0.1,1.3,4.7,1.3,4.7,1.3"/>
		<path class="st8" d="M377.3,142.9c0,0,1.5-0.4,2.8,1.6"/>
		<polyline class="st8" points="386.2,145.5 387.9,145.8 397,146.4 		"/>
	</g>
	<g>
		<path class="st5" d="M414.1,188.8l-1.8-2.3c0,0-15.4,1.8-22.2,10.9c0,0-12.6-6-24-3.1l-0.3,4.1l24.9,14.9l9.7-4L414.1,188.8z"/>
		<g>
			<g>
				<path id="XMLID_1015_" class="st9" d="M416.6,187.5l-2.6,17.5c0,0-14.5,6.4-17.5,11.5l-0.7,0.1l-3.4,0.5c0,0-0.7-0.2-1.8-0.5
					c-2.9-0.8-8.9-2.4-13.7-3c-1.8-0.2-3.5-0.3-4.8-0.2l-9.8-15.3c0,0,15.1-2.1,25.6,1.5l5-0.4c0,0,0.1-0.1,0.2-0.2
					C394.5,197.8,405.1,189.4,416.6,187.5z"/>
			</g>
			<g>
				<defs>
					<path id="SVGID_1_" d="M416.6,187.5l-2.6,17.5c0,0-14.5,6.4-17.5,11.5l-0.7,0.1l-3.4,0.5c0,0-0.7-0.2-1.8-0.5
						c-2.9-0.8-8.9-2.4-13.7-3c-1.8-0.2-3.5-0.3-4.8-0.2l-9.8-15.3c0,0,15.1-2.1,25.6,1.5l5-0.4c0,0,0.1-0.1,0.2-0.2
						C394.5,197.8,405.1,189.4,416.6,187.5z"/>
				</defs>
				<clipPath id="SVGID_2_">
					<use xlink:href="#SVGID_1_"  style="overflow:visible;"/>
				</clipPath>
				<path class="st10" d="M395.6,212.4L393,199c1.5-1.2,12-9.6,23.6-11.5L414,205c0,0-14.5,6.4-17.5,11.5l-0.7,0.1L395.6,212.4z"/>
			</g>
			<g>
				<defs>
					<path id="SVGID_3_" d="M416.6,187.5l-2.6,17.5c0,0-14.5,6.4-17.5,11.5l-0.7,0.1l-3.4,0.5c0,0-0.7-0.2-1.8-0.5
						c-2.9-0.8-8.9-2.4-13.7-3c-1.8-0.2-3.5-0.3-4.8-0.2l-9.8-15.3c0,0,15.1-2.1,25.6,1.5l5-0.4c0,0,0.1-0.1,0.2-0.2
						C394.5,197.8,405.1,189.4,416.6,187.5z"/>
				</defs>
				<clipPath id="SVGID_4_">
					<use xlink:href="#SVGID_3_"  style="overflow:visible;"/>
				</clipPath>
				<path class="st11" d="M390.6,213.4l-0.1,3.1c-2.9-0.8-8.9-2.4-13.7-3c1-11.2,11.2-13,11.2-13L390.6,213.4z"/>
			</g>
			<g>
				<path id="XMLID_1_" class="st12" d="M416.6,187.5l-2.6,17.5c0,0-14.5,6.4-17.5,11.5l-0.7,0.1l-3.4,0.5c0,0-0.7-0.2-1.8-0.5
					c-2.9-0.8-8.9-2.4-13.7-3c-1.8-0.2-3.5-0.3-4.8-0.2l-9.8-15.3c0,0,15.1-2.1,25.6,1.5l5-0.4c0,0,0.1-0.1,0.2-0.2
					C394.5,197.8,405.1,189.4,416.6,187.5z"/>
			</g>
		</g>
	</g>
	<g>
		<path class="st5" d="M395.5,220.7c-5.2-0.3-15.1-8.3-15.1-8.3s-1.1-2.7-2.5-4.1s0.5-2.6,0.5-2.6s-1.6-1.1-2.6-1.6
			c-0.9-0.6,0.7-2.1,0.7-2.1s7,0.9,7.8,0.7c0.7-0.2,7.5,4.1,8.5,4.2s3.4-0.5,4.1-1.1c0.7-0.6,2.9-4.2,4.3-4.9s3.9-0.7,2.7,0.8
			c-1.2,1.5-0.9,4.9-1.6,5.4s-1.5,5.6-1.5,7.4l7.7,7l-4.4,6L395.5,220.7z"/>
		<path class="st2" d="M378.5,205.8c0,0,2.8,0.3,4,1.1"/>
		<path class="st2" d="M383.7,208.5c0,0-0.4,1.8-0.5,2.1c-0.1,0.3,1.4,2,1.2,2.8c-0.2,0.8,1.6,2.9,1.6,2.9"/>
		<path class="st2" d="M381.9,210.6c0,0-3.5-1.8-3.9-2.3"/>
	</g>
	<polygon class="st6" points="378.1,166.3 381.5,173.1 395.3,165.4 398.4,172.2 384.3,181.2 381.5,174.2 376.1,179.4 374.2,170.9 	
		"/>
	<path class="st6" d="M421.1,181.6c3.4,3.6,15.3,29.9,16.4,46.8h-36.3v-1.5l-4-2.3c0,0,2.5-8.6,9.5-7.3l2,2.9l4.5,3.4
		c0,0,7.9,0.2,10.2,2.5"/>
	<path class="st2" d="M413.3,223.6c0,0,4.4-6.4,10.9-3.7"/>
	<path class="st2" d="M411.6,213.4c0,0,3,5.7,3.8,8.1"/>
	<path class="st6" d="M352,203.6c0,0-2.7-15.7-1.9-21.1"/>
	<path class="st6" d="M346.6,188.7c0,0,1.5,7.7,4.9,11.8"/>
	<path class="st6" d="M324.3,190c0,0,4.2,3.5,1.5,12.2"/>
	<path class="st4" d="M380.9,179.7c0,0.5-0.4,0.9-0.9,0.9s-0.9-0.4-0.9-0.9s0.4-0.9,0.9-0.9S380.9,179.2,380.9,179.7z"/>
	<circle class="st4" cx="378.5" cy="192.2" r="0.9"/>
	<circle class="st4" cx="377.1" cy="220.2" r="0.9"/>
	<g>
		<g>
			<polygon class="st2" points="258.9,137.8 270.3,137.8 276,127.9 270.3,118 258.9,118 253.1,127.9 			"/>
			<polyline class="st2" points="257.2,159.6 251.5,149.6 240,149.6 			"/>
			<polygon class="st2" points="241.6,127.9 253,127.9 258.7,118 253,108.1 241.6,108.1 235.8,118 			"/>
			<polygon class="st2" points="258.9,118 270.3,118 276,108.1 270.3,98.2 258.9,98.2 253.1,108.1 			"/>
			<path class="st4" d="M257.2,118c0-0.8,0.7-1.5,1.5-1.5s1.5,0.7,1.5,1.5s-0.7,1.5-1.5,1.5C257.9,119.5,257.2,118.8,257.2,118z"/>
			<circle class="st4" cx="234.8" cy="97.2" r="1.5"/>
			<path class="st4" d="M255.7,159.6c0-0.9,0.7-1.5,1.5-1.5s1.5,0.7,1.5,1.5c0,0.9-0.7,1.5-1.5,1.5
				C256.3,161.1,255.7,160.4,255.7,159.6z"/>
			<circle class="st4" cx="240" cy="149.6" r="1.5"/>
			<path class="st4" d="M287.1,108.3c0-0.8,0.7-1.5,1.5-1.5s1.5,0.7,1.5,1.5s-0.7,1.5-1.5,1.5S287.1,109.2,287.1,108.3z"/>
			<circle class="st4" cx="251.4" cy="149.6" r="1.5"/>
			<path class="st4" d="M274.5,108.3c0-0.8,0.7-1.5,1.5-1.5s1.5,0.7,1.5,1.5s-0.7,1.5-1.5,1.5S274.5,109.2,274.5,108.3z"/>
			<path class="st4" d="M257.2,137.8c0-0.9,0.7-1.5,1.5-1.5s1.5,0.7,1.5,1.5c0,0.9-0.7,1.5-1.5,1.5
				C257.9,139.3,257.2,138.7,257.2,137.8z"/>
			<line class="st2" x1="276" y1="108.3" x2="288.6" y2="108.3"/>
			<line class="st2" x1="258.7" y1="137.8" x2="251.4" y2="149.6"/>
			<line class="st2" x1="241.6" y1="108.1" x2="234.8" y2="97.2"/>
		</g>
		<path class="st2" d="M228.4,185.7c1-0.9,2.2-1.7,3.4-2.3c0.1,0.6,0.7,1.1,1.4,1c0.7-0.1,1.5-0.8,2-0.3c0.2,0.2,0.2,0.5,0.4,0.7
			c0.6,0.6,1.7-0.7,2.4-0.2c0.2,0.1,0.3,0.3,0.5,0.5c0.3,0.2,0.6,0.1,1,0c1.7-0.5,3.5-0.5,5.3-0.4c2.7,0,5.4,0,8.2,0.1
			c-0.2-0.1-0.4-0.2-0.6-0.3"/>
		<path class="st2" d="M227.9,192.5c0.1-0.6,0.8-1.1,1.4-1.1c0.6,0,1.2,0.5,1.4,1.2c0.4-0.2,0.7-0.5,0.9-0.9
			c0.5,1.2,2.1,1.3,3.4,1.2c1.9-0.1,3.8-0.3,5.8-0.4c1.7-0.1,3.8-0.4,4.5-2c0.9,1.5,1.2,3.4,1,5.1c0.5-1.3,1.2-2.5,2.1-3.6
			c0.2,0.6,0.3,1.2,0.5,1.9c4-2.8,9.5-1,14.4-1.6"/>
		<path class="st2" d="M228.4,201.5c-0.1-0.4,0.2-0.7,0.6-0.8c0.1,0.7,1.1,1.1,1.8,0.9s1.2-0.8,1.7-1.4c0.6,0.5,1.5,0.3,1.9-0.3
			c0.4,0.7,0.8,1.4,1.1,2.2c0.5-1.4,2.3-1.6,3.8-1.6c3.9,0,7.8,0,11.7,0"/>
		<path class="st2" d="M318.6,95.8c-2.8-0.2-5.5,0.9-7.8,2.4c-2.8,1.8-5.5,4.8-4.8,8.1c0.7,3.3,4.5,5,7.9,5.6
			c2.9,0.6,5.9,0.8,8.8,0.8c1.1,0,2.3-0.1,3.4-0.4c1.1-0.3,2.2-0.8,3.2-1.3c2.5-1.2,5-2.4,7.5-3.5c1-0.5,2.2-1.1,2.5-2.2
			c0.4-1.4-0.8-2.6-2-3.5c-4.1-3-9.5-4.3-14.5-3.7"/>
		<path class="st2" d="M309.6,103c0.4-0.5,1-0.9,1.6-1.1c-0.1,0.4-0.1,0.8,0,1.1c0.2,0.3,0.7,0.5,1,0.2c0.2-0.2,0.3-0.8,0.6-0.6
			c0.1,0.3,0.2,0.5,0.4,0.8c0.5-0.2,0.9-0.6,1.3-0.8c0.5-0.2,1.1-0.2,1.7-0.2c4.2,0.2,8.4,0.1,12.5-0.4"/>
		<path class="st2" d="M316.5,107.2c0.1-0.4,0.4-0.7,0.8-0.9c-0.2,0.3,0,0.7,0.4,0.7c0.3,0.1,0.6-0.1,1-0.2c0.4-0.1,0.7-0.1,1.1-0.2
			c2.4-0.2,4.7-0.3,7.1-0.5"/>
		<path class="st2" d="M319.5,117.1c-2,7.3-6.3,13.8-12.2,18.6c-5.8,4.8-13.1,7.7-20.6,8.2"/>
		<path class="st2" d="M286.8,141.8c-1.4,0.8-2.6,1.9-3.6,3.2c1.2-0.3,2.5,0.2,3.3,1.2"/>
		<path class="st2" d="M317.1,144.1c0.3,0.6,0.6,1.3,0.9,1.9c0.4-0.5,0.8-1,1.3-1.5c0.3,0.1,0.4,0.4,0.5,0.7s0.2,0.6,0.5,0.6
			c0.3,0.1,0.6-0.3,0.4-0.5c0.4,0.2,0.8,0.3,1.2,0.2c0.2-0.1,0.4-0.1,0.5-0.2c0.2-0.1,0.5-0.1,0.7-0.1c4.4,0,8.8,0,13.1,0"/>
		<path class="st2" d="M317.8,154.9c0.1-0.7,1.3-0.9,1.6-0.3c0.1,0.1,0.1,0.3,0.2,0.4c0.2,0.2,0.6,0.1,0.8-0.1
			c0.2-0.2,0.4-0.5,0.6-0.6c0.6-0.5,1.5-0.1,2.2,0.1c1,0.3,2,0.2,2.9,0.2c2.5-0.1,5-0.3,7.5-0.4"/>
		<path class="st2" d="M318,163.1c0.5,0,1-0.3,1.1-0.8c0.2,0,0.5,0.3,0.5,0.5c0.4-0.2,0.7-0.5,0.9-0.9c4.8,0.1,9.6,0.1,14.4,0"/>
		<path class="st2" d="M318,169.3c0.6,0.3,1.3,0,1.6-0.6c0.3,0.3,0.5,0.6,0.6,1c0.4-0.3,0.9-0.4,1.3-0.2c0.2,0.1,0.4,0.1,0.6,0.2
			c0.5,0.1,1,0.1,1.4,0.1c5.6-0.1,11.2-0.2,16.8-0.3"/>
		<path class="st2" d="M273,208.6c2.5-0.2,5.1-0.5,7.6-0.7c0.1,0,0.3,0,0.4-0.1c0.1-0.1,0.1-0.3,0.1-0.4c0-1.6,0-3.3,0-4.9
			c0-0.2,0-0.3-0.1-0.5c-0.1-0.1-0.3-0.1-0.5-0.2c-1.7-0.1-5.4-1-6.8,0.1C272.2,203,273,206.9,273,208.6z"/>
		<path class="st2" d="M275.2,204.2c0.1,0.5,0.2,0.9,0.3,1.4c1.1-0.2,2.3-0.3,3.5-0.2"/>
		<path class="st2" d="M279,210.6c-0.4,0.4,0.1,1.2,0.6,1.1c0.5-0.1,0.9-0.8,1.4-0.6"/>
		<path class="st2" d="M273.8,199.4c0.3-0.7,1.5-0.4,1.6,0.3c0.6-0.1,1.2-0.1,1.8-0.2"/>
		<path class="st2" d="M289,215.6c2.6,0,5.2,0,7.8,0c2,0,4-0.1,6-0.4c0.2,0,0.5-0.1,0.6-0.3c0.2-0.2,0.2-0.4,0.2-0.7
			c0-3.9,0-7.9,0-11.8c0-0.1-11.9-0.5-13.3,0.4C287.4,204.9,289,212.5,289,215.6z"/>
		<path class="st2" d="M293.2,205.9c0.6,0,1.2,0,1.9,0c-0.4,1.2-0.8,2.5-1.6,3.6c-0.3,0.3-0.5,0.8-0.4,1.1c1,0.1,2.1,0.2,2.7-0.5
			c0.8-0.9,0.1-2.5,0.7-3.6c0.1,0.8,0.1,1.5,0.2,2.3c0.3,0.3,0.5,0.5,0.8,0.8c0.2,0.2,0.5,0.4,0.8,0.5c0.3,0.1,0.7,0,0.8-0.3"/>
		<path class="st2" d="M298.6,217.5c0.6-0.2,0.9,0.9,1.5,1.1c0.6,0.2,1-0.7,1.5-1c0.5-0.4,1.3-0.3,1.6,0.2"/>
		<path class="st2" d="M293.6,198.8c0.6,0.1,0.4,1.1,0.8,1.5c0.5,0.4,1.2,0,1.7-0.4c0.5-0.4,1.4-0.6,1.6,0"/>
	</g>
</g>
<rect x="210.3" y="228.2" class="st13" width="232.9" height="16.4"/>
<g>
	<rect x="247.9" y="234.7" class="st4" width="152.1" height="3.5"/>
	<path class="st14" d="M334.2,236.4c0,1.4-1.1,2.6-2.5,2.6c-1.4,0-2.5-1.1-2.5-2.6s1.1-2.6,2.5-2.6C333,233.9,334.2,235,334.2,236.4
		z"/>
	<rect x="429.3" y="233.3" class="st2" width="6.3" height="6.3"/>
	<rect x="418.7" y="233.3" class="st2" width="6.3" height="6.3"/>
	<rect x="217.5" y="233.2" class="st2" width="11" height="6.4"/>
</g>
<line class="st7" x1="217.3" y1="75.5" x2="258.7" y2="75.5"/>
<path class="st7" d="M437.2,75.3c0,1.3-1.1,2.4-2.4,2.4s-2.4-1.1-2.4-2.4c0-1.3,1.1-2.4,2.4-2.4S437.2,74,437.2,75.3z"/>
<path class="st7" d="M427.6,75.5c0,1.3-1.1,2.4-2.4,2.4s-2.4-1.1-2.4-2.4c0-1.3,1.1-2.4,2.4-2.4S427.6,74.2,427.6,75.5z"/>
<path class="st7" d="M418,75.7c0,1.3-1.1,2.4-2.4,2.4s-2.4-1.1-2.4-2.4c0-1.3,1.1-2.4,2.4-2.4S418,74.3,418,75.7z"/>
<g>
	<g>
		<path id="XMLID_1012_" class="st15" d="M233.4,397h-23l-12.5-4l-3.9-1.2l-1.1,11.7l-136.3,0.3c0,0,2.1-5.3,5.5-12.9
			c7.3-16.6,20.7-44.6,32.4-56.1c9.5-9.3,33.3-9.6,33.3-9.6s3.8-2.7,8.2-2.5s37.4,3.8,39.5,4.8c2.1,1,3.6,3.3,3.6,3.3
			s11.6-5.1,23-0.5C213.5,335,233.4,397,233.4,397z"/>
	</g>
	<g>
		<defs>
			<path id="SVGID_5_" d="M233.4,397h-23l-12.5-4l-3.9-1.2l-1.1,11.7l-136.3,0.3c0,0,2.1-5.3,5.5-12.9c7.3-16.6,20.7-44.6,32.4-56.1
				c9.5-9.3,33.3-9.6,33.3-9.6s3.8-2.7,8.2-2.5s37.4,3.8,39.5,4.8c2.1,1,3.6,3.3,3.6,3.3s11.6-5.1,23-0.5
				C213.5,335,233.4,397,233.4,397z"/>
		</defs>
		<clipPath id="SVGID_6_">
			<use xlink:href="#SVGID_5_"  style="overflow:visible;"/>
		</clipPath>
		<path class="st16" d="M198,393l-3.9-1.2l-1.1,11.7l-136.3,0.3c0,0,2.1-5.3,5.5-12.9c5.3-0.1,11.2-0.4,11.2-0.4l3.1-10
			c0,0,4.8-5.1,10.8-2.1c0,0-0.8-2.5,1.6-4.1c2.3-1.5,11.8,3.4,11.8,3.4s4.6-8.7,6.1-14.5c1.6-5.8,2.6,8.1,2.6,8.1s3.8-6.4,3.8-8.1
			s7.2,17.2,7.2,17.2s9.5,1.1,12,2.1c2.6,1,28.1,2,36.3,0c8.2-2-5.8,9.7-5.8,9.7s14.4,4.9,22.6,1.7c8.1-3.2,11.8-6.6,11.8-6.6
			S197.5,389.7,198,393z"/>
	</g>
	<g>
		<path id="XMLID_2_" class="st2" d="M233.4,397h-23l-12.5-4l-3.9-1.2l-1.1,11.7l-136.3,0.3c0,0,2.1-5.3,5.5-12.9
			c7.3-16.6,20.7-44.6,32.4-56.1c9.5-9.3,33.3-9.6,33.3-9.6s3.8-2.7,8.2-2.5s37.4,3.8,39.5,4.8c2.1,1,3.6,3.3,3.6,3.3
			s11.6-5.1,23-0.5C213.5,335,233.4,397,233.4,397z"/>
	</g>
</g>
<path class="st2" d="M190.5,367c0,0-2.3,3.4-6.9,7.9"/>
<path class="st2" d="M176.8,380.6c-7.8,5.8-18.9,11.5-33.8,13.4"/>
<g>
	<g>
		<path id="XMLID_1011_" class="st15" d="M219.4,377.3c0,0,3.5-2.2,6.6-1.5s5.7,3.8,5.7,3.8s25.7-2.1,31.6-2s18.9,4,18.9,4
			s6.3-1.3,7-1c0.7,0.3-1.4,21.8-1.4,21.8s-79.4,0-83.6,0c-4.1,0-7.1-5.9-10.2-10.6c0,0,8.1-25.4,8.1-57.1"/>
	</g>
	<g>
		<defs>
			<path id="SVGID_7_" d="M219.4,377.3c0,0,3.5-2.2,6.6-1.5s5.7,3.8,5.7,3.8s25.7-2.1,31.6-2s18.9,4,18.9,4s6.3-1.3,7-1
				c0.7,0.3-1.4,21.8-1.4,21.8s-79.4,0-83.6,0c-4.1,0-7.1-5.9-10.2-10.6c0,0,8.1-25.4,8.1-57.1"/>
		</defs>
		<clipPath id="SVGID_8_">
			<use xlink:href="#SVGID_7_"  style="overflow:visible;"/>
		</clipPath>
		<path class="st17" d="M242.3,402.4h-38.1c-4.1,0-7.1-5.9-10.2-10.6c0,0,4.1-13,6.5-32c0,0,4,6,1.6,12.9l2.5-7c0,0,2.4,7.4,0,13.8
			c-2.4,6.3-4,8.1-4,8.1s2.9,3.8,6,2.8c3.1-1,6.4,5.2,6.4,5.2s7.4,0.3,9,0C222.7,395.5,232.3,398.8,242.3,402.4z"/>
	</g>
	<g>
		<path id="XMLID_3_" class="st2" d="M219.4,377.3c0,0,3.5-2.2,6.6-1.5s5.7,3.8,5.7,3.8s25.7-2.1,31.6-2s18.9,4,18.9,4s6.3-1.3,7-1
			c0.7,0.3-1.4,21.8-1.4,21.8s-79.4,0-83.6,0c-4.1,0-7.1-5.9-10.2-10.6c0,0,8.1-25.4,8.1-57.1"/>
	</g>
</g>
<path class="st5" d="M171.6,310.1v20.8c0,0-3.6,2.5-8.2,5c-5.7,3-12.9,6-17.3,4.3c-7.8-3.1-12.9-14.9-12.9-14.9
	c8.5-6.5,9.5-15.1,10.8-19.2L171.6,310.1z"/>
<path class="st2" d="M129.2,326.8c0,0,7.2,15.6,15.9,18.5s23.5-8.2,23.5-8.2"/>
<path class="st2" d="M90,345.7c0,0,13.6,10.6,15.9,14.2s0,37.1,0,37.1"/>
<path class="st13" d="M71.4,379.9c8-5.2,13.7,0.5,18.5,1.5c4.9,1,15.6-4.5,23.7,0c8.1,4.5,8.1,2.9,8.1,2.9s8.5,6.5,4.1,19.4
	l-69.2,0.1c0,0-4.6-9.9,10.6-23.9"/>
<path class="st14" d="M139.2,359.8l18.3,33.4l0.6,3.8l-2.9-2.6l-18.8-33.2C136.4,361.2,137.2,359.5,139.2,359.8z"/>
<g>
	<path class="st5" d="M121.9,386c0,0,2.7-0.8,4.2-0.8s11-7,14.3-7.5c3.2-0.5,9,4.3,12,5s2.8,4.6,4.5,6.1s-0.8,3.3-2.9,1.5
		c0,0,0.6,2-0.8,3.5c0,0,0.6,2.1,0,3.1H119C119,397,118.5,390.5,121.9,386z"/>
	<polyline class="st2" points="154,390.5 151,387.4 143.1,384.9 	"/>
	<polyline class="st2" points="153.3,393.9 148.6,391.8 142.1,390.6 	"/>
	<polyline class="st2" points="142.1,395.6 148.6,395.9 153.3,397 	"/>
	<path class="st2" d="M140.4,377.7c-2.9,2.5,0,5.2-1.4,7.2c-1.4,1.9-2.9,2.5-1.7,5.6"/>
</g>
<g>
	<g>
		<g>
			<path id="XMLID_1013_" class="st9" d="M182,398.6h155.6l0,0c0,2.9-2.3,5.2-5.2,5.2h-138c-0.5,0-1.1-0.1-1.6-0.3l-11.1-3.6
				C181.1,399.7,181.2,398.6,182,398.6z"/>
		</g>
		<g>
			<defs>
				<path id="SVGID_9_" d="M182,398.6h155.6l0,0c0,2.9-2.3,5.2-5.2,5.2h-138c-0.5,0-1.1-0.1-1.6-0.3l-11.1-3.6
					C181.1,399.7,181.2,398.6,182,398.6z"/>
			</defs>
			<clipPath id="SVGID_10_">
				<use xlink:href="#SVGID_9_"  style="overflow:visible;"/>
			</clipPath>
			<path class="st18" d="M337.7,398.6c0,1.4-0.6,2.7-1.5,3.7c0,0-0.1,0.1-0.2,0.1c-0.9,0.9-2.2,1.4-3.5,1.4h-138
				c-0.5,0-1.1-0.1-1.6-0.3l-11.1-3.6c-0.8-0.2-0.6-1.4,0.2-1.4L337.7,398.6L337.7,398.6z"/>
		</g>
		<g>
			<defs>
				<path id="SVGID_11_" d="M182,398.6h155.6l0,0c0,2.9-2.3,5.2-5.2,5.2h-138c-0.5,0-1.1-0.1-1.6-0.3l-11.1-3.6
					C181.1,399.7,181.2,398.6,182,398.6z"/>
			</defs>
			<clipPath id="SVGID_12_">
				<use xlink:href="#SVGID_11_"  style="overflow:visible;"/>
			</clipPath>
			<path class="st19" d="M337.7,398.6c0,1.4-0.6,2.7-1.5,3.7c0,0-0.1,0.1-0.2,0.1h-89.1c-2.1,0-3.8-1.7-3.8-3.8L337.7,398.6
				L337.7,398.6z"/>
		</g>
		<g>
			<path id="XMLID_4_" class="st12" d="M182,398.6h155.6l0,0c0,2.9-2.3,5.2-5.2,5.2h-138c-0.5,0-1.1-0.1-1.6-0.3l-11.1-3.6
				C181.1,399.7,181.2,398.6,182,398.6z"/>
		</g>
	</g>
	<path class="st2" d="M243.1,398.6L243.1,398.6c0,2.1,1.7,3.8,3.8,3.8h14.8"/>
	<g>
		<g>
			<path id="XMLID_1014_" class="st9" d="M365.5,334.7c0,0,0,0.1,0,0.1l-18.1,63c-0.5,1.6-2.2,2.9-3.8,2.9h-94.4
				c-1.6,0-2.6-1.3-2.2-2.9l18.1-63c0.5-1.6,2.2-2.9,3.8-2.9h94.4C365,332,365.9,333.2,365.5,334.7z"/>
		</g>
		<g>
			<defs>
				<path id="SVGID_13_" d="M365.5,334.7c0,0,0,0.1,0,0.1l-18.1,63c-0.5,1.6-2.2,2.9-3.8,2.9h-94.4c-1.6,0-2.6-1.3-2.2-2.9l18.1-63
					c0.5-1.6,2.2-2.9,3.8-2.9h94.4C365,332,365.9,333.2,365.5,334.7z"/>
			</defs>
			<clipPath id="SVGID_14_">
				<use xlink:href="#SVGID_13_"  style="overflow:visible;"/>
			</clipPath>
			<path class="st20" d="M365.5,334.7c0,0,0,0.1,0,0.1l-18.1,63c-0.5,1.6-2.2,2.9-3.8,2.9h-93.7c0,0,0-0.1,0-0.1l18.1-63
				c0.5-1.6,2.2-2.9,3.8-2.9H365.5z"/>
		</g>
		<g>
			<path id="XMLID_5_" class="st12" d="M365.5,334.7c0,0,0,0.1,0,0.1l-18.1,63c-0.5,1.6-2.2,2.9-3.8,2.9h-94.4
				c-1.6,0-2.6-1.3-2.2-2.9l18.1-63c0.5-1.6,2.2-2.9,3.8-2.9h94.4C365,332,365.9,333.2,365.5,334.7z"/>
		</g>
	</g>
	<path class="st5" d="M313.1,367.5c-1.5,3.2-5.1,5.7-8.7,5.7c-4,0-6.3-3.1-5.2-6.9c1.1-3.8,5.2-6.9,9.2-6.9h0.1
		c-0.2,0.4-0.3,0.8-0.4,1.2C306.9,364.4,309.2,367.5,313.1,367.5z"/>
	<path class="st2" d="M250.4,397.6l17.7-61.5c0.3-0.9,1.3-1.7,2.2-1.7h91.5"/>
</g>
<g>
	<g>
		<path id="XMLID_1009_" class="st21" d="M206.5,403.8H76.4l1.6-3.3c0,0,12.3,1.1,22-1.9c4.3-1.3,10.9-2,17.6-1.9
			c4.2,0.1,14.4,0.1,20.7,0.1h0c2.3,0,4,0,4.8-0.1c0.3,0,0.6,0,0.9,0c1.9,0,3.6,0.2,5.4,0.5c1.6-0.2,3.3-0.3,5.1-0.3
			c3,0,15.9,0,19.4,0c4.6,0.1,10,1,15.1,1.7c0.1,0,0.1,0,0.1,0l0,0.1c6.1,0.9,11.9,1.4,15.5-0.1L206.5,403.8z"/>
	</g>
	<g>
		<defs>
			<path id="SVGID_15_" d="M206.5,403.8H76.4l1.6-3.3c0,0,12.3,1.1,22-1.9c4.3-1.3,10.9-2,17.6-1.9c4.2,0.1,14.4,0.1,20.7,0.1h0
				c2.3,0,4,0,4.8-0.1c0.3,0,0.6,0,0.9,0c1.9,0,3.6,0.2,5.4,0.5c1.6-0.2,3.3-0.3,5.1-0.3c3,0,15.9,0,19.4,0c4.6,0.1,10,1,15.1,1.7
				c0.1,0,0.1,0,0.1,0l0,0.1c6.1,0.9,11.9,1.4,15.5-0.1L206.5,403.8z"/>
		</defs>
		<clipPath id="SVGID_16_">
			<use xlink:href="#SVGID_15_"  style="overflow:visible;"/>
		</clipPath>
		<path class="st22" d="M206.5,403.8H105.6l2.1-3.5c0,0,5.5,3.2,10.9,0.9c5.4-2.3,10.8-3.4,19.7-4.4h0c2-0.2,3.9-0.2,5.8-0.1
			c6.4,0.5,11.3,2.6,11.3,2.6s5.3-2.3,18.7-2.3c4.6,0.1,10,1,15.1,1.7c0.1,0,0.1,0,0.1,0l0,0.1c6.1,0.9,11.9,1.4,15.5-0.1
			L206.5,403.8z"/>
	</g>
	<g>
		<defs>
			<path id="SVGID_17_" d="M206.5,403.8H76.4l1.6-3.3c0,0,12.3,1.1,22-1.9c4.3-1.3,10.9-2,17.6-1.9c4.2,0.1,14.4,0.1,20.7,0.1h0
				c2.3,0,4,0,4.8-0.1c0.3,0,0.6,0,0.9,0c1.9,0,3.6,0.2,5.4,0.5c1.6-0.2,3.3-0.3,5.1-0.3c3,0,15.9,0,19.4,0c4.6,0.1,10,1,15.1,1.7
				c0.1,0,0.1,0,0.1,0l0,0.1c6.1,0.9,11.9,1.4,15.5-0.1L206.5,403.8z"/>
		</defs>
		<clipPath id="SVGID_18_">
			<use xlink:href="#SVGID_17_"  style="overflow:visible;"/>
		</clipPath>
		<polygon class="st23" points="107.7,400.3 77.9,400.5 76.4,403.8 105.6,403.8 		"/>
	</g>
	<g>
		<defs>
			<path id="SVGID_19_" d="M206.5,403.8H76.4l1.6-3.3c0,0,12.3,1.1,22-1.9c4.3-1.3,10.9-2,17.6-1.9c4.2,0.1,14.4,0.1,20.7,0.1h0
				c2.3,0,4,0,4.8-0.1c0.3,0,0.6,0,0.9,0c1.9,0,3.6,0.2,5.4,0.5c1.6-0.2,3.3-0.3,5.1-0.3c3,0,15.9,0,19.4,0c4.6,0.1,10,1,15.1,1.7
				c0.1,0,0.1,0,0.1,0l0,0.1c6.1,0.9,11.9,1.4,15.5-0.1L206.5,403.8z"/>
		</defs>
		<clipPath id="SVGID_20_">
			<use xlink:href="#SVGID_19_"  style="overflow:visible;"/>
		</clipPath>
		<path class="st24" d="M106.4,402.3l1.2-2.1c0,0,4,1.9,8.3,1.7c4.4-0.1,11.2-5.5,24.5-5.3"/>
	</g>
	<g>
		<defs>
			<path id="SVGID_21_" d="M206.5,403.8H76.4l1.6-3.3c0,0,12.3,1.1,22-1.9c4.3-1.3,10.9-2,17.6-1.9c4.2,0.1,14.4,0.1,20.7,0.1h0
				c2.3,0,4,0,4.8-0.1c0.3,0,0.6,0,0.9,0c1.9,0,3.6,0.2,5.4,0.5c1.6-0.2,3.3-0.3,5.1-0.3c3,0,15.9,0,19.4,0c4.6,0.1,10,1,15.1,1.7
				c0.1,0,0.1,0,0.1,0l0,0.1c6.1,0.9,11.9,1.4,15.5-0.1L206.5,403.8z"/>
		</defs>
		<clipPath id="SVGID_22_">
			<use xlink:href="#SVGID_21_"  style="overflow:visible;"/>
		</clipPath>
		<path class="st25" d="M149.4,397.2c2.4,0.9,5.9,2.1,5.9,2.1s4.5-2.6,14.4-2.3"/>
	</g>
	<g>
		<defs>
			<path id="SVGID_23_" d="M206.5,403.8H76.4l1.6-3.3c0,0,12.3,1.1,22-1.9c4.3-1.3,10.9-2,17.6-1.9c4.2,0.1,14.4,0.1,20.7,0.1h0
				c2.3,0,4,0,4.8-0.1c0.3,0,0.6,0,0.9,0c1.9,0,3.6,0.2,5.4,0.5c1.6-0.2,3.3-0.3,5.1-0.3c3,0,15.9,0,19.4,0c4.6,0.1,10,1,15.1,1.7
				c0.1,0,0.1,0,0.1,0l0,0.1c6.1,0.9,11.9,1.4,15.5-0.1L206.5,403.8z"/>
		</defs>
		<clipPath id="SVGID_24_">
			<use xlink:href="#SVGID_23_"  style="overflow:visible;"/>
		</clipPath>
		<path class="st26" d="M107.7,400.3c0,0-15.4,0.3-21.5,0.4"/>
	</g>
	<g>
		<defs>
			<path id="SVGID_25_" d="M206.5,403.8H76.4l1.6-3.3c0,0,12.3,1.1,22-1.9c4.3-1.3,10.9-2,17.6-1.9c4.2,0.1,14.4,0.1,20.7,0.1h0
				c2.3,0,4,0,4.8-0.1c0.3,0,0.6,0,0.9,0c1.9,0,3.6,0.2,5.4,0.5c1.6-0.2,3.3-0.3,5.1-0.3c3,0,15.9,0,19.4,0c4.6,0.1,10,1,15.1,1.7
				c0.1,0,0.1,0,0.1,0l0,0.1c6.1,0.9,11.9,1.4,15.5-0.1L206.5,403.8z"/>
		</defs>
		<clipPath id="SVGID_26_">
			<use xlink:href="#SVGID_25_"  style="overflow:visible;"/>
		</clipPath>
		<path class="st27" d="M153.3,403.8c0,0,0.3-2.2,2.4-2.6c2.2-0.4,3.6,2.3,3.6,2.3"/>
	</g>
	<g>
		<defs>
			<path id="SVGID_27_" d="M206.5,403.8H76.4l1.6-3.3c0,0,12.3,1.1,22-1.9c4.3-1.3,10.9-2,17.6-1.9c4.2,0.1,14.4,0.1,20.7,0.1h0
				c2.3,0,4,0,4.8-0.1c0.3,0,0.6,0,0.9,0c1.9,0,3.6,0.2,5.4,0.5c1.6-0.2,3.3-0.3,5.1-0.3c3,0,15.9,0,19.4,0c4.6,0.1,10,1,15.1,1.7
				c0.1,0,0.1,0,0.1,0l0,0.1c6.1,0.9,11.9,1.4,15.5-0.1L206.5,403.8z"/>
		</defs>
		<clipPath id="SVGID_28_">
			<use xlink:href="#SVGID_27_"  style="overflow:visible;"/>
		</clipPath>
		<line class="st28" x1="155.3" y1="399.3" x2="155.7" y2="401.2"/>
	</g>
	<g>
		<defs>
			<path id="SVGID_29_" d="M206.5,403.8H76.4l1.6-3.3c0,0,12.3,1.1,22-1.9c4.3-1.3,10.9-2,17.6-1.9c4.2,0.1,14.4,0.1,20.7,0.1h0
				c2.3,0,4,0,4.8-0.1c0.3,0,0.6,0,0.9,0c1.9,0,3.6,0.2,5.4,0.5c1.6-0.2,3.3-0.3,5.1-0.3c3,0,15.9,0,19.4,0c4.6,0.1,10,1,15.1,1.7
				c0.1,0,0.1,0,0.1,0l0,0.1c6.1,0.9,11.9,1.4,15.5-0.1L206.5,403.8z"/>
		</defs>
		<clipPath id="SVGID_30_">
			<use xlink:href="#SVGID_29_"  style="overflow:visible;"/>
		</clipPath>
		<path class="st29" d="M157.5,401.2c0,0,6.9-3.2,13.6-2.6"/>
	</g>
	<g>
		<defs>
			<path id="SVGID_31_" d="M206.5,403.8H76.4l1.6-3.3c0,0,12.3,1.1,22-1.9c4.3-1.3,10.9-2,17.6-1.9c4.2,0.1,14.4,0.1,20.7,0.1h0
				c2.3,0,4,0,4.8-0.1c0.3,0,0.6,0,0.9,0c1.9,0,3.6,0.2,5.4,0.5c1.6-0.2,3.3-0.3,5.1-0.3c3,0,15.9,0,19.4,0c4.6,0.1,10,1,15.1,1.7
				c0.1,0,0.1,0,0.1,0l0,0.1c6.1,0.9,11.9,1.4,15.5-0.1L206.5,403.8z"/>
		</defs>
		<clipPath id="SVGID_32_">
			<use xlink:href="#SVGID_31_"  style="overflow:visible;"/>
		</clipPath>
		<path class="st30" d="M154.6,401.6c-0.6-0.5-11-3.7-21.6-1.3"/>
	</g>
	<g>
		<defs>
			<path id="SVGID_33_" d="M206.5,403.8H76.4l1.6-3.3c0,0,12.3,1.1,22-1.9c4.3-1.3,10.9-2,17.6-1.9c4.2,0.1,14.4,0.1,20.7,0.1h0
				c2.3,0,4,0,4.8-0.1c0.3,0,0.6,0,0.9,0c1.9,0,3.6,0.2,5.4,0.5c1.6-0.2,3.3-0.3,5.1-0.3c3,0,15.9,0,19.4,0c4.6,0.1,10,1,15.1,1.7
				c0.1,0,0.1,0,0.1,0l0,0.1c6.1,0.9,11.9,1.4,15.5-0.1L206.5,403.8z"/>
		</defs>
		<clipPath id="SVGID_34_">
			<use xlink:href="#SVGID_33_"  style="overflow:visible;"/>
		</clipPath>
		<path class="st31" d="M153.3,402.9c0,0-8.8-1.7-16.4-0.5"/>
	</g>
	<g>
		<defs>
			<path id="SVGID_35_" d="M206.5,403.8H76.4l1.6-3.3c0,0,12.3,1.1,22-1.9c4.3-1.3,10.9-2,17.6-1.9c4.2,0.1,14.4,0.1,20.7,0.1h0
				c2.3,0,4,0,4.8-0.1c0.3,0,0.6,0,0.9,0c1.9,0,3.6,0.2,5.4,0.5c1.6-0.2,3.3-0.3,5.1-0.3c3,0,15.9,0,19.4,0c4.6,0.1,10,1,15.1,1.7
				c0.1,0,0.1,0,0.1,0l0,0.1c6.1,0.9,11.9,1.4,15.5-0.1L206.5,403.8z"/>
		</defs>
		<clipPath id="SVGID_36_">
			<use xlink:href="#SVGID_35_"  style="overflow:visible;"/>
		</clipPath>
		<path class="st32" d="M158.5,402.4c0,0,8.4-2.6,17.8-1.2c9.4,1.4,17.8,1.2,17.8,1.2"/>
	</g>
	<g>
		<path id="XMLID_6_" class="st12" d="M206.5,403.8H76.4l1.6-3.3c0,0,12.3,1.1,22-1.9c4.3-1.3,10.9-2,17.6-1.9
			c4.2,0.1,14.4,0.1,20.7,0.1h0c2.3,0,4,0,4.8-0.1c0.3,0,0.6,0,0.9,0c1.9,0,3.6,0.2,5.4,0.5c1.6-0.2,3.3-0.3,5.1-0.3
			c3,0,15.9,0,19.4,0c4.6,0.1,10,1,15.1,1.7c0.1,0,0.1,0,0.1,0l0,0.1c6.1,0.9,11.9,1.4,15.5-0.1L206.5,403.8z"/>
	</g>
</g>
<path class="st4" d="M171.6,327.4v3.5c0,0-3.6,2.5-8.2,5c-6.2-5.7-7.1-16.6-7.1-16.6L171.6,327.4z"/>
<g>
	<path class="st5" d="M145.1,307.5c-7.3-10.8-5.9-31.1,3.6-42.1c13.8-16.1,49.9-4.4,49.9,18.5c0,3-0.3,6.2-0.8,9.5
		c-0.5,3-3.1,6.1-3.9,9.1s-0.5,7.7-0.8,10.7c-0.7,6.6-9.9,19.8-12.4,21.2c-3.5,2-22.3-3.3-26.4-15.4"/>
	<path class="st2" d="M170.7,294.1c0,0,5.1-1.9,9.7,0"/>
	<path class="st2" d="M190.9,294.1c0,0,3.7-1.9,6.2,0"/>
	<path class="st4" d="M175.5,302.9c-0.3,1.3-1.2,2.3-2,2.1s-1.3-1.4-1-2.7c0.3-1.3,1.2-2.3,2-2.1
		C175.3,300.3,175.8,301.5,175.5,302.9z"/>
	<path class="st4" d="M192,302.9c-0.3,1.3-1.2,2.3-2,2.1s-1.3-1.4-1-2.7c0.3-1.3,1.2-2.3,2-2.1C191.8,300.3,192.2,301.5,192,302.9z"
		/>
	<path class="st5" d="M189.3,296.1c0,0-2.4,4.2-2.7,7.8c-0.3,3.6,3.8,10.9,2.7,13.2s-6.3,2.2-7.9,0.8"/>
	<path class="st2" d="M182.2,322.5c0,0-5.3,0.9-9.9-1.4"/>
	<path class="st4" d="M152.4,297.5c0,0,2.4-2.3,5.2-1.4c2.8,0.9,3.3,8.6,3.3,8.6l2.1-2.2c0,0-0.8-4.3,2.3-10.4s1.5-13.3,1.5-13.3
		s5.3,1.8,7.1,5.9c0,0,2-4.4,0-7.7c0,0,8.3,2,10.3,8.2c0,0,1.6-4.6,1.1-6.9c0,0,5.6,1.8,7.6,7.2c0,0,1.9-4.1,1.1-7.4
		c0,0,2.3,1.9,3.1,7.7c0,0,2.6-4.6,1.4-11.3c0,0,2.9,3.3,3.4,6.1c0,0,2.4-8.2-11.5-19.2c-13.9-11-37.6-8.5-41.3,0
		c0,0,1.2-6.3,3.7-8.5c0,0-6.9,3-6.7,9.3c0,0-6-0.8-9.1,3.1c0,0,3.1-0.3,5.6,0.3c0,0-8.2,4.9-7.7,16.4s7.7,28.2,7.7,28.2l5.6-1.6
		C148.4,308.5,149.3,300.6,152.4,297.5z"/>
	<path class="st5" d="M158.6,300.4c0,0-4.4-7.7-6.7-8.2c-2.3-0.5-6.7,2.6-5.6,6.7c1,4.1,1.8,11,3.1,11.8c1.3,0.8,3.3,5.4,5.4,4.1
		s0.5-3.1,0.5-3.1"/>
</g>
<path class="st2" d="M207.3,359.8c0,0-0.5,2.4-1.7,5.6"/>
<path class="st2" d="M204.1,369.1c-1.6,3.3-3.7,6.8-6.7,9.3"/>
<path class="st2" d="M231.7,379.5c-1.3-0.2-4,1.5-6.5,3.7"/>
<path class="st2" d="M223.4,384.9c-2,2-3.4,4.1-3.4,5.5"/>
<path class="st2" d="M82,374.3c0,0,5.5,1.5,5.6,6.3"/>
<path class="st2" d="M102.8,348.4c0,0,1.2,1.2,2.5,3.3"/>
<path class="st2" d="M107.5,355.7c1,2.2,1.7,4.8,1.7,7.5c0,8-2.3,12.6-2.3,12.6"/>
<path class="st2" d="M136.4,340.6c0,0,1.8,1.7,4.7,3.7"/>
<path class="st2" d="M145.9,347.2c5,2.5,11.4,4.4,18.1,2.7"/>
<g class="st33">
	<path class="st7" d="M156.3,261.8c0,0,2.2-0.4,5.3-0.3"/>
	<path class="st7" d="M164.1,261.6c4.8,0.5,10.6,2.1,14.2,7.1"/>
	<path class="st7" d="M167.9,257.9c0,0,8.9,0.1,15.3,4.6"/>
	<path class="st7" d="M185.7,264.6c1.1,1.2,2,2.5,2.7,4.1"/>
	<path class="st7" d="M154,265.6c0,0,8.8,3.1,11.8,8.6"/>
	<path class="st7" d="M149.8,268.7c0,0,2.8,3.6,4,8.7"/>
	<path class="st7" d="M154.4,281.8c0,1.1-0.1,2.3-0.3,3.5"/>
	<path class="st7" d="M143.9,272.3c0,0-0.6,1.3-1.1,3.5"/>
	<path class="st7" d="M142.1,279.2c-0.4,2.7-0.6,5.9-0.1,9.2"/>
</g>
<g>
	<polyline class="st5" points="258.6,421.1 381.2,421.1 381.2,403.8 39.6,403.8 39.6,421.1 108.7,421.1 	"/>
	<line class="st2" x1="249.8" y1="421.1" x2="232.4" y2="421.1"/>
</g>
</svg>
