<?xml version="1.0" encoding="utf-8"?>
<!-- Generator: Adobe Illustrator 24.0.1, SVG Export Plug-In . SVG Version: 6.00 Build 0)  -->
<svg version="1.1" xmlns="http://www.w3.org/2000/svg" xmlns:xlink="http://www.w3.org/1999/xlink" x="0px" y="0px"
	 viewBox="0 0 500 460" style="enable-background:new 0 0 500 460;" xml:space="preserve">
<style type="text/css">
	.st0{fill:#C5EFFF;}
	.st1{opacity:0.7;fill:#C5EFFF;}
	.st2{fill:none;stroke:#263238;stroke-linecap:round;stroke-linejoin:round;stroke-miterlimit:10;}
	.st3{fill:#83C4FF;stroke:#000000;stroke-miterlimit:10;}
	.st4{fill:#263238;}
	.st5{fill:#FFFFFF;stroke:#263238;stroke-linecap:round;stroke-linejoin:round;stroke-miterlimit:10;}
	.st6{fill:#757575;stroke:#263238;stroke-linecap:round;stroke-linejoin:round;stroke-miterlimit:10;}
	.st7{fill:none;stroke:#FFFFFF;stroke-linecap:round;stroke-linejoin:round;stroke-miterlimit:10;}
	.st8{fill:none;stroke:#263238;stroke-width:0.5;stroke-miterlimit:10;}
	.st9{opacity:0.3;clip-path:url(#XMLID_2_);fill-opacity:0.7;}
	.st10{fill:#BFBFBF;stroke:#263238;stroke-linecap:round;stroke-linejoin:round;stroke-miterlimit:10;}
	.st11{opacity:0.2;clip-path:url(#XMLID_3_);fill-opacity:0.7;}
	.st12{opacity:0.2;clip-path:url(#XMLID_4_);fill-opacity:0.7;}
	.st13{opacity:0.2;clip-path:url(#XMLID_5_);fill-opacity:0.7;}
	.st14{opacity:0.4;clip-path:url(#XMLID_6_);fill:#FFFFFF;}
	.st15{opacity:0.4;clip-path:url(#XMLID_7_);fill:#3B68BF;stroke:#000000;stroke-miterlimit:10;}
	.st16{clip-path:url(#XMLID_7_);fill:#3B68BF;stroke:#000000;stroke-miterlimit:10;}
	.st17{opacity:0.2;}
</style>
<g id="Background_Simple">
</g>
<g id="Window">
</g>
<g id="Book_shelf">
</g>
<g id="Screen">
</g>
<g id="Character">
	<g>
		<g>
			<path class="st0" d="M209.13,413.24C92.91,392.92,108.47,332.79,71.89,263.39c-36.58-69.4-40.89-97.65-4.67-157.11
				c36.23-59.46,114.58-92.98,187.6-43.21c73.02,49.76,126.37,34.33,170.5,73.09c44.13,38.76,50.11,92.87-2.26,141.07
				S352.43,438.29,209.13,413.24z"/>
			<path class="st1" d="M209.13,413.24C92.91,392.92,108.47,332.79,71.89,263.39c-36.58-69.4-40.89-97.65-4.67-157.11
				c36.23-59.46,114.58-92.98,187.6-43.21c73.02,49.76,126.37,34.33,170.5,73.09c44.13,38.76,50.11,92.87-2.26,141.07
				S352.43,438.29,209.13,413.24z"/>
		</g>
		<g>
			<polyline class="st2" points="67.76,255.81 67.76,86.3 82.18,86.3 			"/>
			<line class="st2" x1="67.76" y1="283.53" x2="67.76" y2="277.34"/>
			<polyline class="st2" points="119.25,86.3 267.98,86.3 267.98,305.22 67.76,305.22 			"/>
			<line class="st2" x1="101.01" y1="86.3" x2="114.08" y2="86.3"/>
			<rect x="75.29" y="93.82" class="st2" width="185.16" height="203.89"/>
			<polyline class="st2" points="251.84,108.13 251.84,187.43 83.9,187.43 83.9,180.19 			"/>
			<polyline class="st2" points="83.9,163.23 83.9,101.69 251.84,101.69 			"/>
			<line class="st2" x1="83.9" y1="174.63" x2="83.9" y2="167.6"/>
			<line class="st2" x1="223.48" y1="195.76" x2="260.45" y2="195.76"/>
			<line class="st2" x1="210.33" y1="195.76" x2="215.57" y2="195.76"/>
			<line class="st2" x1="75.29" y1="195.76" x2="204.09" y2="195.76"/>
			<polyline class="st2" points="158.57,187.43 158.57,183.61 174.05,183.61 174.05,185.78 167.87,185.78 167.87,187.43 			"/>
			<path class="st2" d="M75.61,264.1c0,0,2.57,1.94,4.37,13.71c0,0,3.11-18.79,6.88-19.08c3.77-0.29,3,12.22,3,12.22
				s0.63-6.17,3.58-5.88c2.95,0.28,0,12.74,0,12.74s3.54-9.71,6.9-9.54c3.36,0.16-2.23,17.59-2.23,17.59s8.61-6.23,12.1-3.18
				c3.49,3.05-1.94,10.74-1.94,10.74s12.34-2.68,14.27,4.57"/>
			<path class="st2" d="M122.54,290.96c0,0,5.38-3.52,9.61-1.88c0,0-2.69-4.1,0-6.61c2.69-2.51,6.15,6.61,6.15,6.61
				s0.38-15.27,5.77-14.5c5.38,0.77,0,14.5,0,14.5s9.61-8.52,11.92-5.55c2.31,2.97-1.54,7.43-1.54,7.43s5.76-1.84,9.99,2.45
				c0,0,6.44-6.57,13.6-7.51c0,0-4.76-13.82-2.45-16.61c2.31-2.79,6.5,12.06,6.5,12.06s1.83-9.66,7.84-10.4c0,0-5-2.72-3.52-6.85
				c1.48-4.13,8.4,0.97,8.4,0.97s-2.84-7.26,1.65-9.25c4.5-1.99,6.37,6.08,6.37,6.08s1.25-8.46,6.54-7.99
				c5.25,0.46,3.57,10.2,3.57,10.2s4.99-7.73,7.66-6.95c5.34,1.57,3.72,13.8,3.72,13.8s7.45-5.18,9.37-2.79
				c2.07,2.57-7.75,9.19-7.75,9.19s7.39,0.82,11.99,5.12"/>
			<path class="st2" d="M260.45,266.89c0,0-0.85-7.76-8.61-8.16c-7.76-0.41,2.13,17.01,2.13,17.01s-6.4-5.29-8.69-3.66
				c-2.3,1.63,6.56,10.6,6.56,10.6s-4.25-3.93-8.74-2.71c-4.48,1.22,2.56,13.7,2.56,13.7s-9.34-2.44-19.72,2.31"/>
		</g>
		<g>
			<polyline class="st2" points="337.68,371.16 337.68,274.3 446.75,274.3 			"/>
			<polyline class="st2" points="442.78,284.32 346.45,284.32 346.45,374.54 			"/>
			<polyline class="st2" points="365.73,333.52 365.73,293.41 372.04,293.41 372.04,301.69 380.46,301.69 380.46,297.98 
				387.98,297.98 387.98,302.48 398.13,302.48 398.13,293.41 408.51,293.41 408.51,299.51 414.11,299.51 414.11,295.97 
				424.15,295.97 424.15,319.59 			"/>
			<line class="st2" x1="414.11" y1="299.51" x2="414.11" y2="333.52"/>
			<line class="st2" x1="409.32" y1="304.59" x2="409.32" y2="310.67"/>
			<line class="st2" x1="409.32" y1="315.02" x2="409.32" y2="339.96"/>
			<line class="st2" x1="398.13" y1="302.48" x2="398.13" y2="324.89"/>
			<line class="st2" x1="398.52" y1="332.27" x2="398.52" y2="339.25"/>
			<line class="st2" x1="387.98" y1="302.48" x2="387.98" y2="315.02"/>
			<line class="st2" x1="387.98" y1="322.73" x2="387.98" y2="349.14"/>
			<line class="st2" x1="380.46" y1="301.69" x2="380.46" y2="332.82"/>
			<line class="st2" x1="372.04" y1="301.69" x2="372.04" y2="313.47"/>
			<line class="st2" x1="372.04" y1="319.59" x2="372.04" y2="347.58"/>
			<line class="st2" x1="365.73" y1="339.25" x2="365.73" y2="351.89"/>
			<line class="st2" x1="352.72" y1="351.89" x2="429.27" y2="351.89"/>
			<line class="st2" x1="414.11" y1="351.89" x2="414.11" y2="343.81"/>
			<line class="st2" x1="398.52" y1="345.94" x2="398.52" y2="351.52"/>
			<line class="st2" x1="425" y1="306.35" x2="432.42" y2="306.35"/>
			<line class="st2" x1="353.01" y1="358.95" x2="424.15" y2="358.95"/>
			<polyline class="st2" points="368.28,379.52 368.28,370.1 381.45,370.1 381.45,376.17 392.05,376.17 392.05,388.01 
				398.13,388.01 398.13,370.46 411.59,370.46 411.59,374.54 419.85,374.54 			"/>
			<line class="st2" x1="411.59" y1="374.54" x2="411.59" y2="384.65"/>
			<line class="st2" x1="398.52" y1="392.29" x2="398.52" y2="399.09"/>
			<line class="st2" x1="392.05" y1="388.01" x2="392.05" y2="396.98"/>
			<line class="st2" x1="381.45" y1="376.17" x2="381.45" y2="381.31"/>
		</g>
		<rect x="210.25" y="67.55" class="st3" width="232.86" height="160.88"/>
		<rect x="210.25" y="67.55" class="st4" width="232.86" height="15.91"/>
		<g>
			<g>
				<path class="st5" d="M304.58,177.85l-5.47-7.6c0,0-0.04-4.04-0.24-4.75s-3.52-5.93-3.59-7.17c-0.07-1.24-0.23-1.74-0.23-1.74
					s-1.7,0.43-1.67,1.47c0.03,1.04,0.2,4.55,0.2,4.55s-4.43-2.59-4.92-3.27c-0.49-0.68-5.9-4.64-6.41-5.23
					c-0.51-0.59-2.57-0.63-2.81-0.03l0.29,0.73l-1.7,0.8l1.14,3.38c0,0-0.76,1.97-0.59,2.39c0.18,0.42,0.79,2.91,0.79,2.91
					s-0.37,0.38-0.32,1.7c0.05,1.33,7.31,8.08,8.72,8.8c1.42,0.72,5.27,1.86,5.27,1.86l4.56,5.9L304.58,177.85z"/>
				<path class="st2" d="M293.57,162.61c0,0-1.42,2.97-0.61,6.14"/>
				<path class="st2" d="M279.72,154.8c1.47,0.57,3.31,3.3,4.16,4.15c0.85,0.85,2.44,1.88,2.44,1.88"/>
				<path class="st2" d="M279.17,158.98c1.2-0.25,2.01,0.21,1.99,1.39c-0.03,1.18,2.57,2.96,2.57,2.96"/>
				<path class="st2" d="M279.37,164.29c0,0,0.85-1.5,1.51-0.81c0.67,0.69,0.89,2.46,2.12,2.83"/>
			</g>
			<path class="st6" d="M375.59,169.6c0,0-19.17,1.18-23.4,2.92c-3.47,1.43-27.87,17.49-27.87,17.49s-14.35-10.82-18.51-14.54
				c-0.5-0.44-2.56-0.73-2.56-0.73l-2.18-1.47l-5.38,7.57l1.51,2.09c0,0,0.25,3.37,0.92,4.21c8.92,11.2,26.01,26.89,28.57,28.43
				c2.56,1.54,25.32-11.92,25.32-11.92l4.23,24.77h67.91c0,0-0.18-43.48-3.04-46.81c-2.86-3.33-35.6-16.4-35.6-16.4L375.59,169.6z"
				/>
			<path class="st5" d="M398.52,153.9c0,0-6.08,4.09-2.86,17.12c0,0-9.16,6.55-18.22-0.06c0,0,2.09-10.39-0.01-12.48"/>
			<path class="st2" d="M419.85,183.67c0,0-8.26,9.51-9.23,25.8"/>
			<g>
				<path class="st4" d="M383.47,127.73c0,0-5.43-0.82-7.32,5.86c-1.9,6.67,1.26,12.17,1.26,12.17l9.97-9.41L383.47,127.73z"/>
				<path class="st5" d="M396.66,157.83c6.99-8.34,11.93-22.23,1.43-27.78c-20.25-10.71-26.94,10.19-23.53,29.69
					c1.05,5.99,9.19,3.32,15.15,1.15"/>
				<path class="st2" d="M382.52,139.71c0,0,3.33,0.9,4.19,2.69"/>
				<path class="st2" d="M377.67,138.82c0,0-1.29-0.69-2.51,0.13"/>
				<path class="st4" d="M382.46,144.31c-0.06,0.6,0.2,1.11,0.59,1.15c0.38,0.04,0.74-0.42,0.8-1.02c0.06-0.6-0.2-1.11-0.59-1.15
					C382.87,143.25,382.51,143.71,382.46,144.31z"/>
				<path class="st4" d="M375.21,142.52c-0.06,0.6,0.2,1.11,0.59,1.15c0.38,0.04,0.74-0.42,0.8-1.02c0.06-0.6-0.2-1.11-0.59-1.15
					C375.63,141.46,375.27,141.92,375.21,142.52z"/>
				<path class="st4" d="M393.55,148.21c0,0-3.14,4.55-5.25,6c-2.12,1.46-4.59,0.91-4.59,0.91s-2.69-3.32-6.62-3.37
					c0,0-1.92-1.21-3.37-1.15l0.22-5.08c0,0-2.98,10.88-2.7,14.77c0.29,3.89,9.85,6.6,14.65,5.51c4.8-1.09,7.22-8.54,8.68-15.57
					C394.68,149.68,393.55,148.21,393.55,148.21z"/>
				<path class="st7" d="M374.3,154.26c0,0,3.79,1.82,7.15,1.39"/>
				<path class="st4" d="M396.68,134.36c1.24-1.01-1.97-5.16-3.73-5.07c-1.77,0.09-10.56,0.42-10.56,0.42s-1.85-9.66,12.92-4.44
					c2.42,0.85,3.2,3.12,5.36,4.28c2.17,1.15,5.1,7.24,4.27,12.43c-0.83,5.19-3.61,14.3-8.63,17.03c0,0-1.74-0.18-0.68-1.37
					c4.94-5.57-0.24-16.05-1.07-7.39l-1.74-1.03c0,0-0.08-0.45,0.29-2.83C393.5,143.99,390.86,139.13,396.68,134.36z"/>
				<path class="st5" d="M395.88,147.58c0,0,3.18-3.78,5.1-2.49c1.92,1.28,0.64,5.82-0.4,6.97c-1.04,1.15-1.86,1.39-3.29,3.21
					c-1.43,1.82-3.23,1.2-2.96-0.26"/>
				<path class="st8" d="M386.19,144.8c0.11,2.11-1.18,3.89-2.87,3.98c-1.7,0.09-3.16-1.55-3.27-3.66
					c-0.11-2.11,1.18-3.89,2.87-3.98C384.62,141.05,386.08,142.69,386.19,144.8z"/>
				<path class="st8" d="M377.25,142.89c0.11,2.11-1.18,3.89-2.87,3.98c-1.7,0.09-3.16-1.55-3.27-3.66
					c-0.11-2.11,1.18-3.89,2.87-3.98C375.68,139.14,377.14,140.78,377.25,142.89z"/>
				<path class="st5" d="M378.17,141.08c0.05,0.95-5.03,6.71-5.09,7.98c-0.06,1.27,4.69,1.34,4.69,1.34"/>
				<path class="st8" d="M377.25,142.89c0,0,1.5-0.38,2.76,1.65"/>
				<polyline class="st8" points="386.23,145.54 387.86,145.78 397.02,146.42 				"/>
			</g>
			<g>
				<path class="st5" d="M414.11,188.82l-1.82-2.27c0,0-15.36,1.78-22.23,10.95c0,0-12.65-5.97-24-3.06l-0.34,4.07l24.87,14.88
					l9.73-4.04L414.11,188.82z"/>
				<g>
					<defs>
						<path id="XMLID_1015_" d="M416.61,187.47l-2.62,17.48c0,0-14.48,6.36-17.5,11.47l-0.71,0.1l-3.4,0.47c0,0-0.7-0.21-1.84-0.54
							c-2.94-0.83-8.86-2.4-13.7-3c-1.84-0.24-3.53-0.33-4.84-0.18l-9.8-15.27c0,0,15.15-2.09,25.63,1.5l5.01-0.35
							c0,0,0.06-0.05,0.18-0.16C394.51,197.77,405.06,189.38,416.61,187.47z"/>
					</defs>
					<use xlink:href="#XMLID_1015_"  style="overflow:visible;fill:#83C4FF;"/>
					<clipPath id="XMLID_2_">
						<use xlink:href="#XMLID_1015_"  style="overflow:visible;"/>
					</clipPath>
					<path class="st9" d="M395.59,212.45l-2.57-13.46c1.5-1.22,12.05-9.6,23.59-11.51l-2.62,17.48c0,0-14.48,6.36-17.5,11.47
						l-0.71,0.1L395.59,212.45z"/>
					<path class="st9" d="M390.6,213.4l-0.08,3.06c-2.94-0.83-8.86-2.4-13.7-3c0.97-11.18,11.23-12.97,11.23-12.97L390.6,213.4z"/>
					<use xlink:href="#XMLID_1015_"  style="overflow:visible;fill:none;stroke:#000000;stroke-miterlimit:10;"/>
				</g>
			</g>
			<g>
				<path class="st5" d="M395.52,220.69c-5.18-0.33-15.06-8.28-15.06-8.28s-1.06-2.66-2.47-4.07c-1.41-1.41,0.47-2.58,0.47-2.58
					s-1.64-1.06-2.58-1.64c-0.94-0.59,0.7-2.11,0.7-2.11s7.04,0.94,7.77,0.7c0.72-0.23,7.49,4.11,8.55,4.23
					c1.06,0.12,3.35-0.47,4.06-1.06c0.7-0.59,2.87-4.23,4.28-4.93c1.41-0.7,3.88-0.7,2.7,0.82c-1.17,1.53-0.94,4.93-1.56,5.4
					c-0.62,0.47-1.55,5.59-1.55,7.35l7.68,7.01l-4.37,5.96L395.52,220.69z"/>
				<path class="st2" d="M378.47,205.76c0,0,2.76,0.34,3.98,1.12"/>
				<path class="st2" d="M383.67,208.54c0,0-0.44,1.78-0.55,2.06c-0.11,0.27,1.44,2.01,1.22,2.8c-0.22,0.79,1.59,2.95,1.59,2.95"/>
				<path class="st2" d="M381.89,210.59c0,0-3.54-1.78-3.9-2.25"/>
			</g>
			<polygon class="st6" points="378.13,166.34 381.49,173.11 395.31,165.45 398.35,172.24 384.25,181.19 381.55,174.18 
				376.06,179.45 374.21,170.93 			"/>
			<path class="st6" d="M421.11,181.61c3.36,3.59,15.27,29.88,16.43,46.81h-36.33v-1.52l-3.96-2.32c0,0,2.46-8.65,9.46-7.3
				l2.04,2.95l4.52,3.4c0,0,7.93,0.21,10.24,2.49"/>
			<path class="st2" d="M413.27,223.65c0,0,4.41-6.35,10.88-3.66"/>
			<path class="st2" d="M411.59,213.4c0,0,3.03,5.72,3.77,8.09"/>
			<path class="st6" d="M352,203.65c0,0-2.69-15.69-1.92-21.11"/>
			<path class="st6" d="M346.62,188.66c0,0,1.49,7.71,4.88,11.83"/>
			<path class="st6" d="M324.33,190.01c0,0,4.23,3.5,1.54,12.23"/>
			<path class="st4" d="M380.86,179.72c0,0.5-0.41,0.91-0.91,0.91s-0.91-0.41-0.91-0.91c0-0.5,0.41-0.91,0.91-0.91
				S380.86,179.22,380.86,179.72z"/>
			<circle class="st4" cx="378.47" cy="192.19" r="0.91"/>
			<circle class="st4" cx="377.09" cy="220.24" r="0.91"/>
			<g>
				<g>
					<polygon class="st2" points="258.86,137.81 270.31,137.81 276.03,127.89 270.31,117.98 258.86,117.98 253.13,127.89 					"/>
					<polyline class="st2" points="257.19,159.56 251.47,149.64 240.02,149.64 					"/>
					<polygon class="st2" points="241.56,127.89 253.01,127.89 258.73,117.98 253.01,108.06 241.56,108.06 235.83,117.98 					"/>
					<polygon class="st2" points="258.86,117.98 270.31,117.98 276.03,108.06 270.31,98.15 258.86,98.15 253.13,108.06 					"/>
					<path class="st4" d="M257.19,117.98c0-0.85,0.69-1.54,1.54-1.54c0.85,0,1.54,0.69,1.54,1.54c0,0.85-0.69,1.54-1.54,1.54
						C257.88,119.51,257.19,118.82,257.19,117.98z"/>
					<circle class="st4" cx="234.82" cy="97.16" r="1.54"/>
					<path class="st4" d="M255.66,159.56c0-0.85,0.69-1.54,1.54-1.54c0.85,0,1.54,0.69,1.54,1.54c0,0.85-0.69,1.54-1.54,1.54
						C256.34,161.09,255.66,160.41,255.66,159.56z"/>
					<circle class="st4" cx="240.02" cy="149.64" r="1.54"/>
					<path class="st4" d="M287.1,108.32c0-0.85,0.69-1.54,1.54-1.54c0.85,0,1.54,0.69,1.54,1.54c0,0.85-0.69,1.54-1.54,1.54
						C287.79,109.86,287.1,109.17,287.1,108.32z"/>
					<circle class="st4" cx="251.35" cy="149.64" r="1.54"/>
					<path class="st4" d="M274.49,108.32c0-0.85,0.69-1.54,1.54-1.54c0.85,0,1.54,0.69,1.54,1.54c0,0.85-0.69,1.54-1.54,1.54
						C275.18,109.86,274.49,109.17,274.49,108.32z"/>
					<path class="st4" d="M257.19,137.81c0-0.85,0.69-1.54,1.54-1.54c0.85,0,1.54,0.69,1.54,1.54c0,0.85-0.69,1.54-1.54,1.54
						C257.88,139.34,257.19,138.66,257.19,137.81z"/>
					<line class="st2" x1="276.03" y1="108.32" x2="288.64" y2="108.32"/>
					<line class="st2" x1="258.73" y1="137.81" x2="251.35" y2="149.64"/>
					<line class="st2" x1="241.56" y1="108.06" x2="234.82" y2="97.16"/>
				</g>
				<path class="st2" d="M228.36,185.72c1.03-0.93,2.19-1.71,3.44-2.32c0.07,0.63,0.72,1.12,1.35,1.03c0.7-0.1,1.48-0.78,1.97-0.28
					c0.19,0.19,0.24,0.5,0.44,0.69c0.62,0.57,1.68-0.67,2.38-0.2c0.18,0.12,0.29,0.34,0.48,0.46c0.28,0.18,0.64,0.08,0.96-0.01
					c1.71-0.47,3.52-0.46,5.3-0.45c2.72,0.02,5.44,0.04,8.16,0.05c-0.21-0.11-0.41-0.21-0.62-0.32"/>
				<path class="st2" d="M227.93,192.53c0.14-0.63,0.76-1.12,1.4-1.1c0.64,0.02,1.24,0.53,1.35,1.17c0.4-0.18,0.71-0.53,0.86-0.94
					c0.53,1.19,2.14,1.28,3.44,1.19c1.92-0.14,3.84-0.27,5.76-0.41c1.72-0.12,3.75-0.43,4.53-1.98c0.86,1.54,1.21,3.36,0.99,5.11
					c0.53-1.27,1.23-2.47,2.08-3.56c0.17,0.62,0.34,1.24,0.51,1.87c4.01-2.8,9.5-0.99,14.36-1.59"/>
				<path class="st2" d="M228.44,201.54c-0.05-0.36,0.22-0.73,0.57-0.79c0.11,0.74,1.06,1.09,1.77,0.87
					c0.71-0.22,1.23-0.83,1.71-1.4c0.56,0.48,1.53,0.31,1.9-0.33c0.43,0.7,0.79,1.45,1.07,2.23c0.53-1.35,2.31-1.56,3.76-1.55
					c3.9,0.01,7.79,0.02,11.69,0.03"/>
				<path class="st2" d="M318.58,95.77c-2.77-0.23-5.48,0.9-7.82,2.4c-2.8,1.79-5.46,4.8-4.76,8.05c0.72,3.35,4.53,4.96,7.9,5.62
					c2.9,0.56,5.85,0.83,8.8,0.78c1.14-0.02,2.28-0.08,3.38-0.36c1.13-0.28,2.19-0.78,3.24-1.28c2.51-1.18,5.01-2.36,7.52-3.53
					c1.04-0.49,2.19-1.11,2.47-2.22c0.35-1.37-0.82-2.64-1.97-3.47c-4.15-2.99-9.46-4.33-14.53-3.67"/>
				<path class="st2" d="M309.64,103.04c0.44-0.49,1.02-0.86,1.65-1.05c-0.07,0.38-0.14,0.8,0.04,1.14c0.17,0.35,0.7,0.53,0.96,0.24
					c0.21-0.24,0.32-0.76,0.61-0.62c0.12,0.26,0.23,0.52,0.35,0.79c0.48-0.17,0.85-0.56,1.31-0.76c0.52-0.22,1.1-0.19,1.66-0.16
					c4.17,0.22,8.36,0.09,12.5-0.38"/>
				<path class="st2" d="M316.45,107.17c0.11-0.4,0.43-0.73,0.82-0.87c-0.22,0.25,0.05,0.66,0.38,0.72c0.33,0.05,0.65-0.1,0.96-0.2
					c0.36-0.11,0.74-0.13,1.12-0.16c2.36-0.16,4.73-0.32,7.09-0.48"/>
				<path class="st2" d="M319.47,117.09c-2.03,7.25-6.34,13.84-12.17,18.6c-5.83,4.77-13.14,7.69-20.64,8.24"/>
				<path class="st2" d="M286.77,141.84c-1.37,0.84-2.6,1.92-3.62,3.16c1.21-0.27,2.55,0.21,3.31,1.19"/>
				<path class="st2" d="M317.14,144.11c0.29,0.65,0.59,1.3,0.88,1.95c0.42-0.5,0.84-1,1.26-1.49c0.26,0.14,0.36,0.44,0.46,0.72
					s0.24,0.57,0.52,0.65c0.28,0.08,0.61-0.29,0.4-0.49c0.36,0.24,0.82,0.32,1.24,0.2c0.18-0.05,0.35-0.14,0.54-0.18
					c0.22-0.06,0.45-0.06,0.67-0.06c4.38,0.01,8.75,0.01,13.13,0.02"/>
				<path class="st2" d="M317.75,154.86c0.11-0.72,1.29-0.92,1.64-0.28c0.06,0.12,0.1,0.25,0.2,0.35c0.21,0.2,0.56,0.1,0.77-0.1
					c0.21-0.19,0.35-0.46,0.57-0.63c0.61-0.48,1.49-0.11,2.24,0.1c0.95,0.26,1.95,0.21,2.93,0.16c2.49-0.13,4.97-0.26,7.46-0.39"/>
				<path class="st2" d="M317.98,163.1c0.5,0.02,0.98-0.34,1.1-0.82c0.24,0.04,0.45,0.25,0.5,0.49c0.36-0.22,0.67-0.51,0.9-0.86
					c4.81,0.06,9.61,0.07,14.42,0.04"/>
				<path class="st2" d="M317.98,169.27c0.58,0.26,1.34-0.01,1.64-0.58c0.31,0.25,0.53,0.61,0.61,1c0.38-0.26,0.87-0.35,1.32-0.24
					c0.19,0.05,0.37,0.13,0.56,0.18c0.46,0.14,0.95,0.13,1.43,0.12c5.58-0.08,11.16-0.17,16.75-0.25"/>
				<path class="st2" d="M272.99,208.55c2.53-0.24,5.07-0.49,7.6-0.73c0.13-0.01,0.27-0.03,0.37-0.12c0.12-0.11,0.12-0.29,0.12-0.45
					c0-1.63,0-3.25,0-4.88c0-0.16-0.01-0.34-0.11-0.46c-0.11-0.13-0.3-0.15-0.46-0.16c-1.66-0.14-5.38-0.97-6.8,0.15
					C272.23,203.04,273,206.89,272.99,208.55z"/>
				<path class="st2" d="M275.17,204.22c0.09,0.46,0.19,0.91,0.28,1.37c1.15-0.24,2.34-0.3,3.51-0.18"/>
				<path class="st2" d="M279.05,210.65c-0.35,0.42,0.1,1.19,0.64,1.08c0.51-0.1,0.92-0.79,1.4-0.57"/>
				<path class="st2" d="M273.81,199.44c0.32-0.66,1.54-0.44,1.61,0.29c0.61-0.07,1.22-0.15,1.83-0.22"/>
				<path class="st2" d="M288.96,215.56c2.6,0.02,5.2,0.02,7.81,0c2.02-0.02,4.04-0.05,6.03-0.36c0.22-0.04,0.46-0.08,0.6-0.25
					c0.16-0.18,0.16-0.44,0.16-0.67c0-3.94,0.01-7.88,0.01-11.82c0-0.14-11.91-0.52-13.3,0.44
					C287.44,204.86,288.96,212.54,288.96,215.56z"/>
				<path class="st2" d="M293.19,205.95c0.62,0.01,1.24,0.03,1.85,0.04c-0.4,1.24-0.81,2.51-1.57,3.57
					c-0.25,0.34-0.55,0.77-0.36,1.15c0.96,0.15,2.1,0.24,2.72-0.5c0.8-0.95,0.09-2.5,0.69-3.59c0.08,0.77,0.15,1.53,0.23,2.3
					c0.27,0.26,0.54,0.51,0.81,0.77c0.23,0.21,0.47,0.44,0.77,0.52c0.3,0.09,0.68-0.01,0.81-0.29"/>
				<path class="st2" d="M298.59,217.54c0.62-0.22,0.86,0.93,1.49,1.09c0.62,0.16,0.99-0.67,1.51-1.04
					c0.49-0.35,1.25-0.25,1.64,0.21"/>
				<path class="st2" d="M293.57,198.84c0.58,0.15,0.36,1.12,0.79,1.54c0.45,0.43,1.16-0.02,1.66-0.4c0.49-0.38,1.4-0.57,1.58,0.03"
					/>
			</g>
		</g>
		<rect x="210.25" y="228.2" class="st10" width="232.86" height="16.45"/>
		<g>
			<rect x="247.87" y="234.68" class="st4" width="152.15" height="3.5"/>
			<path class="st3" d="M334.16,236.43c0,1.41-1.14,2.55-2.55,2.55c-1.41,0-2.55-1.14-2.55-2.55c0-1.41,1.14-2.55,2.55-2.55
				C333.02,233.87,334.16,235.02,334.16,236.43z"/>
			<rect x="429.27" y="233.28" class="st2" width="6.29" height="6.29"/>
			<rect x="418.71" y="233.28" class="st2" width="6.29" height="6.29"/>
			<rect x="217.46" y="233.21" class="st2" width="10.97" height="6.43"/>
		</g>
		<line class="st7" x1="217.33" y1="75.5" x2="258.73" y2="75.5"/>
		<path class="st7" d="M437.21,75.35c0,1.34-1.09,2.43-2.43,2.43c-1.34,0-2.43-1.09-2.43-2.43c0-1.34,1.09-2.43,2.43-2.43
			C436.12,72.92,437.21,74.01,437.21,75.35z"/>
		<path class="st7" d="M427.6,75.5c0,1.34-1.09,2.43-2.43,2.43c-1.34,0-2.43-1.09-2.43-2.43c0-1.34,1.09-2.43,2.43-2.43
			C426.51,73.07,427.6,74.16,427.6,75.5z"/>
		<path class="st7" d="M418,75.65c0,1.34-1.09,2.43-2.43,2.43c-1.34,0-2.43-1.09-2.43-2.43c0-1.34,1.09-2.43,2.43-2.43
			C416.91,73.22,418,74.3,418,75.65z"/>
		<g>
			<defs>
				<path id="XMLID_1012_" d="M233.43,396.98h-23.01l-12.46-3.95l-3.92-1.23l-1.14,11.73l-136.25,0.25c0,0,2.08-5.25,5.47-12.94
					c7.32-16.61,20.73-44.65,32.45-56.11c9.52-9.3,33.31-9.56,33.31-9.56s3.82-2.68,8.19-2.47c4.37,0.21,37.43,3.8,39.48,4.83
					c2.05,1.02,3.59,3.32,3.59,3.32s11.58-5.12,22.96-0.51C213.49,334.96,233.43,396.98,233.43,396.98z"/>
			</defs>
			<use xlink:href="#XMLID_1012_"  style="overflow:visible;fill:#BFBFBF;"/>
			<clipPath id="XMLID_3_">
				<use xlink:href="#XMLID_1012_"  style="overflow:visible;"/>
			</clipPath>
			<path class="st11" d="M197.96,393.04l-3.92-1.23l-1.14,11.73l-136.25,0.25c0,0,2.08-5.25,5.47-12.94
				c5.26-0.13,11.18-0.4,11.18-0.4l3.05-9.98c0,0,4.79-5.06,10.78-2.08c0,0-0.76-2.54,1.55-4.07c2.31-1.54,11.8,3.39,11.8,3.39
				s4.57-8.71,6.12-14.47c1.56-5.75,2.58,8.09,2.58,8.09s3.85-6.35,3.85-8.09c0-1.74,7.17,17.23,7.17,17.23s9.48,1.14,12.05,2.11
				c2.57,0.96,28.1,1.98,36.32,0c8.23-1.98-5.83,9.68-5.83,9.68s14.44,4.87,22.6,1.67c8.15-3.21,11.82-6.6,11.82-6.6
				S197.53,389.72,197.96,393.04z"/>
			
				<use xlink:href="#XMLID_1012_"  style="overflow:visible;fill:none;stroke:#263238;stroke-linecap:round;stroke-linejoin:round;stroke-miterlimit:10;"/>
		</g>
		<path class="st2" d="M190.46,367.02c0,0-2.25,3.43-6.89,7.88"/>
		<path class="st2" d="M176.84,380.56c-7.77,5.75-18.95,11.54-33.76,13.35"/>
		<g>
			<defs>
				<path id="XMLID_1011_" d="M219.38,377.25c0,0,3.54-2.19,6.64-1.48c3.1,0.71,5.66,3.79,5.66,3.79s25.74-2.14,31.58-1.97
					c5.84,0.17,18.91,4.02,18.91,4.02s6.33-1.28,7.01-1.03c0.68,0.26-1.37,21.83-1.37,21.83s-79.44,0-83.55,0
					c-4.1,0-7.14-5.94-10.22-10.61c0,0,8.06-25.39,8.06-57.07"/>
			</defs>
			<use xlink:href="#XMLID_1011_"  style="overflow:visible;fill:#BFBFBF;"/>
			<clipPath id="XMLID_4_">
				<use xlink:href="#XMLID_1011_"  style="overflow:visible;"/>
			</clipPath>
			<path class="st12" d="M242.32,402.41h-38.05c-4.1,0-7.14-5.94-10.22-10.6c0,0,4.13-13,6.48-32.01c0,0,4.04,6,1.58,12.94
				l2.46-6.95c0,0,2.36,7.44,0,13.75c-2.35,6.31-4.04,8.11-4.04,8.11s2.89,3.81,6.01,2.79c3.12-1.01,6.45,5.16,6.45,5.16
				s7.42,0.28,8.97,0C222.66,395.48,232.27,398.79,242.32,402.41z"/>
			
				<use xlink:href="#XMLID_1011_"  style="overflow:visible;fill:none;stroke:#263238;stroke-linecap:round;stroke-linejoin:round;stroke-miterlimit:10;"/>
		</g>
		<path class="st5" d="M171.62,310.1v20.76c0,0-3.55,2.48-8.16,4.95c-5.67,3-12.93,5.98-17.26,4.29
			c-7.84-3.08-12.92-14.92-12.92-14.92c8.46-6.45,9.48-15.07,10.77-19.17L171.62,310.1z"/>
		<path class="st2" d="M129.17,326.76c0,0,7.18,15.63,15.89,18.45c8.71,2.82,23.51-8.2,23.51-8.2"/>
		<path class="st2" d="M89.96,345.68c0,0,13.58,10.59,15.89,14.16s0,37.14,0,37.14"/>
		<path class="st10" d="M71.44,379.85c8.02-5.17,13.65,0.49,18.52,1.51c4.87,1.02,15.63-4.48,23.71,0c8.07,4.48,8.07,2.94,8.07,2.94
			s8.46,6.45,4.1,19.36l-69.19,0.13c0,0-4.61-9.87,10.56-23.93"/>
		<path class="st3" d="M139.23,359.84l18.26,33.4l0.57,3.75l-2.88-2.59l-18.84-33.16C136.35,361.23,137.22,359.5,139.23,359.84z"/>
		<g>
			<path class="st5" d="M121.93,386.03c0,0,2.69-0.77,4.23-0.77s11.04-7.03,14.27-7.55c3.22-0.52,9.03,4.28,11.99,5.05
				c2.96,0.77,2.77,4.61,4.5,6.15c1.73,1.54-0.77,3.27-2.88,1.54c0,0,0.58,1.95-0.77,3.47c0,0,0.58,2.1,0,3.06h-34.25
				C119.02,396.98,118.48,390.45,121.93,386.03z"/>
			<polyline class="st2" points="154.03,390.45 150.96,387.4 143.08,384.87 			"/>
			<polyline class="st2" points="153.26,393.92 148.56,391.8 142.12,390.59 			"/>
			<polyline class="st2" points="142.12,395.6 148.56,395.89 153.26,396.98 			"/>
			<path class="st2" d="M140.43,377.71c-2.93,2.55-0.04,5.24-1.39,7.17c-1.35,1.92-2.88,2.5-1.73,5.57"/>
		</g>
		<g>
			<g>
				<defs>
					<path id="XMLID_1013_" d="M182.03,398.6h155.65l0,0c0,2.86-2.32,5.18-5.18,5.18H194.49c-0.54,0-1.08-0.08-1.59-0.25
						l-11.09-3.58C181.06,399.71,181.24,398.6,182.03,398.6z"/>
				</defs>
				<use xlink:href="#XMLID_1013_"  style="overflow:visible;fill:#83C4FF;"/>
				<clipPath id="XMLID_5_">
					<use xlink:href="#XMLID_1013_"  style="overflow:visible;"/>
				</clipPath>
				<path class="st13" d="M337.68,398.61c0,1.43-0.58,2.72-1.52,3.66c-0.05,0.05-0.11,0.1-0.16,0.14c-0.92,0.86-2.16,1.38-3.51,1.38
					h-138c-0.54,0-1.08-0.09-1.59-0.25l-11.09-3.58c-0.76-0.24-0.58-1.35,0.21-1.35H337.68z"/>
				<path class="st13" d="M337.68,398.61c0,1.43-0.58,2.72-1.52,3.66c-0.05,0.05-0.11,0.1-0.16,0.14h-89.06
					c-2.1,0-3.81-1.7-3.81-3.8H337.68z"/>
				<use xlink:href="#XMLID_1013_"  style="overflow:visible;fill:none;stroke:#000000;stroke-miterlimit:10;"/>
			</g>
			<path class="st2" d="M243.15,398.6L243.15,398.6c0,2.1,1.7,3.8,3.8,3.8h14.78"/>
			<g>
				<defs>
					<path id="XMLID_1014_" d="M365.54,334.72c-0.01,0.04-0.02,0.09-0.03,0.13l-18.08,63.02c-0.46,1.58-2.17,2.87-3.82,2.87h-94.35
						c-1.65,0-2.62-1.28-2.18-2.87l18.09-63.02c0.46-1.58,2.16-2.87,3.82-2.87h94.35C364.95,331.98,365.92,333.19,365.54,334.72z"/>
				</defs>
				<use xlink:href="#XMLID_1014_"  style="overflow:visible;fill:#83C4FF;"/>
				<clipPath id="XMLID_6_">
					<use xlink:href="#XMLID_1014_"  style="overflow:visible;"/>
				</clipPath>
				<path class="st14" d="M365.54,334.72c-0.01,0.04-0.02,0.09-0.03,0.13l-18.08,63.02c-0.46,1.58-2.17,2.87-3.82,2.87h-93.73
					c0.01-0.04,0.02-0.09,0.03-0.13l18.08-63.02c0.46-1.58,2.17-2.87,3.82-2.87H365.54z"/>
				<use xlink:href="#XMLID_1014_"  style="overflow:visible;fill:none;stroke:#000000;stroke-miterlimit:10;"/>
			</g>
			<path class="st5" d="M313.09,367.51c-1.51,3.24-5.15,5.71-8.71,5.71c-3.97,0-6.31-3.07-5.22-6.86c1.09-3.79,5.19-6.87,9.16-6.87
				h0.1c-0.18,0.37-0.32,0.77-0.44,1.16C306.91,364.41,309.19,367.45,313.09,367.51z"/>
			<path class="st2" d="M250.36,397.63l17.66-61.51c0.26-0.92,1.26-1.67,2.22-1.67h91.46"/>
		</g>
		<g>
			<defs>
				<path id="XMLID_1009_" d="M206.53,403.79H76.36l1.57-3.28c0,0,12.26,1.13,22.01-1.89c4.3-1.34,10.93-1.96,17.58-1.87
					c4.19,0.06,14.38,0.1,20.71,0.07h0.01c2.25-0.01,4.02-0.03,4.84-0.06c0.32-0.02,0.64-0.02,0.95-0.02
					c1.87-0.02,3.65,0.16,5.37,0.51c1.57-0.17,3.28-0.28,5.14-0.25c3,0.04,15.92-0.05,19.43,0c4.64,0.06,9.99,0.95,15.07,1.67
					c0.05-0.02,0.1-0.03,0.14-0.05l0.03,0.07c6.14,0.86,11.89,1.44,15.52-0.07L206.53,403.79z"/>
			</defs>
			<use xlink:href="#XMLID_1009_"  style="overflow:visible;fill:#3B68BF;"/>
			<clipPath id="XMLID_7_">
				<use xlink:href="#XMLID_1009_"  style="overflow:visible;"/>
			</clipPath>
			<path class="st15" d="M206.53,403.79H105.6l2.05-3.53c0,0,5.51,3.22,10.89,0.93c5.38-2.27,10.81-3.4,19.69-4.38h0.01
				c1.99-0.22,3.95-0.21,5.79-0.08c6.36,0.48,11.28,2.57,11.28,2.57s5.3-2.31,18.67-2.31c4.64,0.06,9.99,0.95,15.07,1.67
				c0.05-0.02,0.1-0.03,0.14-0.05l0.03,0.07c6.14,0.86,11.89,1.44,15.52-0.07L206.53,403.79z"/>
			<polygon class="st16" points="107.65,400.26 77.93,400.5 76.36,403.79 105.6,403.79 			"/>
			<path class="st16" d="M106.44,402.34l1.21-2.08c0,0,3.97,1.86,8.33,1.73c4.36-0.13,11.23-5.52,24.45-5.26"/>
			<path class="st16" d="M149.4,397.24c2.44,0.9,5.91,2.06,5.91,2.06s4.49-2.58,14.36-2.31"/>
			<path class="st16" d="M107.65,400.26c0,0-15.37,0.28-21.52,0.4"/>
			<path class="st16" d="M153.26,403.78c0,0,0.26-2.23,2.43-2.59c2.18-0.36,3.59,2.33,3.59,2.33"/>
			<line class="st16" x1="155.31" y1="399.3" x2="155.7" y2="401.19"/>
			<path class="st16" d="M157.5,401.19c0,0,6.92-3.16,13.58-2.59"/>
			<path class="st16" d="M154.65,401.57c-0.62-0.48-11-3.69-21.63-1.32"/>
			<path class="st16" d="M153.26,402.89c0,0-8.76-1.67-16.36-0.51"/>
			<path class="st16" d="M158.47,402.4c0,0,8.4-2.64,17.81-1.21c9.4,1.44,17.77,1.18,17.77,1.18"/>
			<use xlink:href="#XMLID_1009_"  style="overflow:visible;fill:none;stroke:#000000;stroke-miterlimit:10;"/>
		</g>
		<path class="st4" d="M171.62,327.41v3.45c0,0-3.55,2.48-8.16,4.95c-6.23-5.72-7.11-16.6-7.11-16.6L171.62,327.41z"/>
		<g>
			<path class="st5" d="M145.06,307.54c-7.32-10.84-5.85-31.15,3.59-42.15c13.84-16.15,49.95-4.36,49.91,18.47
				c-0.01,3.05-0.3,6.24-0.81,9.46c-0.48,3.01-3.09,6.06-3.89,9.06c-0.8,3-0.48,7.74-0.8,10.72c-0.71,6.64-9.9,19.8-12.39,21.23
				c-3.48,1.99-22.28-3.34-26.38-15.39"/>
			<path class="st2" d="M170.69,294.15c0,0,5.13-1.86,9.74,0"/>
			<path class="st2" d="M190.94,294.15c0,0,3.73-1.86,6.22,0"/>
			<path class="st4" d="M175.48,302.85c-0.27,1.32-1.16,2.25-1.99,2.08c-0.83-0.17-1.29-1.38-1.02-2.69
				c0.27-1.32,1.16-2.25,1.99-2.08C175.3,300.33,175.75,301.53,175.48,302.85z"/>
			<path class="st4" d="M191.96,302.85c-0.27,1.32-1.16,2.25-1.99,2.08c-0.83-0.17-1.29-1.38-1.02-2.69
				c0.27-1.32,1.16-2.25,1.99-2.08C191.77,300.33,192.23,301.53,191.96,302.85z"/>
			<path class="st5" d="M189.27,296.14c0,0-2.43,4.23-2.69,7.82c-0.26,3.59,3.84,10.89,2.69,13.2c-1.15,2.31-6.28,2.18-7.94,0.77"/>
			<path class="st2" d="M182.22,322.53c0,0-5.25,0.9-9.87-1.41"/>
			<path class="st4" d="M152.42,297.55c0,0,2.38-2.31,5.2-1.41c2.82,0.9,3.33,8.59,3.33,8.59l2.05-2.18c0,0-0.77-4.34,2.31-10.43
				c3.08-6.09,1.54-13.27,1.54-13.27s5.29,1.79,7.13,5.89c0,0,2-4.36,0-7.69c0,0,8.25,2.05,10.3,8.2c0,0,1.62-4.61,1.07-6.92
				c0,0,5.6,1.79,7.65,7.18c0,0,1.86-4.1,1.06-7.43c0,0,2.25,1.92,3.11,7.69c0,0,2.63-4.61,1.41-11.28c0,0,2.88,3.33,3.39,6.15
				c0,0,2.37-8.2-11.5-19.22c-13.87-11.02-37.6-8.52-41.29,0c0,0,1.22-6.28,3.69-8.52c0,0-6.85,3.03-6.66,9.29c0,0-6-0.77-9.07,3.08
				c0,0,3.08-0.26,5.64,0.26c0,0-8.2,4.87-7.69,16.4c0.51,11.53,7.69,28.19,7.69,28.19l5.62-1.64
				C148.37,308.46,149.27,300.62,152.42,297.55z"/>
			<path class="st5" d="M158.65,300.37c0,0-4.36-7.69-6.66-8.2c-2.31-0.51-6.66,2.56-5.64,6.66c1.03,4.1,1.79,11.02,3.08,11.79
				c1.28,0.77,3.33,5.38,5.38,4.1c2.05-1.28,0.51-3.08,0.51-3.08"/>
		</g>
		<path class="st2" d="M207.34,359.79c0,0-0.51,2.38-1.7,5.58"/>
		<path class="st2" d="M204.08,369.09c-1.56,3.3-3.74,6.81-6.67,9.3"/>
		<path class="st2" d="M231.68,379.55c-1.33-0.18-4.04,1.5-6.52,3.67"/>
		<path class="st2" d="M223.35,384.94c-1.96,2.01-3.45,4.14-3.45,5.51"/>
		<path class="st2" d="M82.02,374.31c0,0,5.53,1.54,5.59,6.28"/>
		<path class="st2" d="M102.78,348.43c0,0,1.17,1.24,2.5,3.28"/>
		<path class="st2" d="M107.47,355.71c0.98,2.22,1.72,4.81,1.72,7.53c0,8-2.31,12.61-2.31,12.61"/>
		<path class="st2" d="M136.35,340.58c0,0,1.76,1.73,4.69,3.74"/>
		<path class="st2" d="M145.92,347.23c4.97,2.51,11.39,4.4,18.06,2.74"/>
		<g class="st17">
			<path class="st7" d="M156.34,261.81c0,0,2.17-0.39,5.25-0.34"/>
			<path class="st7" d="M164.14,261.6c4.76,0.45,10.61,2.11,14.24,7.12"/>
			<path class="st7" d="M167.87,257.91c0,0,8.91,0.1,15.3,4.56"/>
			<path class="st7" d="M185.68,264.62c1.1,1.16,2.02,2.52,2.7,4.11"/>
			<path class="st7" d="M154.03,265.65c0,0,8.76,3.08,11.79,8.59"/>
			<path class="st7" d="M149.8,268.73c0,0,2.8,3.6,4.01,8.7"/>
			<path class="st7" d="M154.36,281.8c0.01,1.12-0.09,2.28-0.32,3.46"/>
			<path class="st7" d="M143.91,272.31c0,0-0.56,1.34-1.11,3.5"/>
			<path class="st7" d="M142.1,279.16c-0.42,2.66-0.62,5.86-0.11,9.17"/>
		</g>
		<g>
			<polyline class="st5" points="258.59,421.06 381.22,421.06 381.22,403.78 39.61,403.78 39.61,421.06 108.67,421.06 			"/>
			<line class="st5" x1="249.79" y1="421.06" x2="232.38" y2="421.06"/>
		</g>
	</g>
</g>
</svg>
