<?xml version="1.0" encoding="utf-8"?>
<!-- Generator: Adobe Illustrator 24.0.1, SVG Export Plug-In . SVG Version: 6.00 Build 0)  -->
<svg version="1.1" xmlns="http://www.w3.org/2000/svg" xmlns:xlink="http://www.w3.org/1999/xlink" x="0px" y="0px"
	 viewBox="0 0 500 500" style="enable-background:new 0 0 500 500;" xml:space="preserve">
<style type="text/css">
	.st0{fill:#C4EFFF;}
	.st1{fill:#FFFFFF;}
	.st2{fill:#95E0FF;}
	.st3{fill:#8B865C;}
	.st4{fill:#00AFFE;}
	.st5{fill:#EFBC74;}
	.st6{fill:#363E44;}
	.st7{fill:#757575;}
	.st8{fill:#40484C;}
</style>
<g id="Background">
</g>
<g id="Illustration">
	<g>
		<circle class="st0" cx="249.32" cy="250" r="224.32"/>
		
			<rect x="93.27" y="57.57" transform="matrix(-1 -1.224647e-16 1.224647e-16 -1 532.0349 360.1273)" class="st1" width="345.49" height="244.99"/>
		
			<rect x="164.86" y="7.66" transform="matrix(-1.836970e-16 1 -1 -1.836970e-16 435.5816 -96.4532)" class="st2" width="202.31" height="323.81"/>
		<path class="st1" d="M229.65,307.75h10.23l0,0c0,7.67,6.22,13.89,13.89,13.89h24.49c7.67,0,13.89-6.22,13.89-13.89l0,0h10.23
			l10.23,54.36v4.55h-93.19v-4.55L229.65,307.75z"/>
		<path class="st1" d="M312.61,372.87h-93.19c-0.3,0-0.54-0.24-0.54-0.54c0-0.3,0.24-0.54,0.54-0.54h93.19
			c0.3,0,0.54,0.24,0.54,0.54C313.15,372.63,312.91,372.87,312.61,372.87z"/>
		<g>
			<rect x="116.03" y="171.59" class="st0" width="209.98" height="84.32"/>
			<rect x="338.17" y="171.59" class="st0" width="77.84" height="84.32"/>
			<g>
				<path class="st3" d="M416.01,162.4H116.03c-0.3,0-0.54-0.24-0.54-0.54V83.22c0-0.3,0.24-0.54,0.54-0.54h299.98
					c0.3,0,0.54,0.24,0.54,0.54v78.64C416.55,162.16,416.3,162.4,416.01,162.4z M116.57,161.32h298.9V83.76h-298.9V161.32z"/>
				<g>
					<path class="st3" d="M400.72,99.56h-66.97c-0.3,0-0.54-0.24-0.54-0.54c0-0.3,0.24-0.54,0.54-0.54h66.97
						c0.3,0,0.54,0.24,0.54,0.54C401.26,99.32,401.02,99.56,400.72,99.56z"/>
					<path class="st3" d="M400.72,110.23h-78.27c-0.3,0-0.54-0.24-0.54-0.54c0-0.3,0.24-0.54,0.54-0.54h78.27
						c0.3,0,0.54,0.24,0.54,0.54C401.26,109.99,401.02,110.23,400.72,110.23z"/>
					<path class="st3" d="M400.72,120.9h-78.27c-0.3,0-0.54-0.24-0.54-0.54c0-0.3,0.24-0.54,0.54-0.54h78.27
						c0.3,0,0.54,0.24,0.54,0.54C401.26,120.66,401.02,120.9,400.72,120.9z"/>
				</g>
			</g>
		</g>
		
			<ellipse transform="matrix(0.2669 -0.9637 0.9637 0.2669 70.4352 520.0967)" class="st1" cx="377.09" cy="213.75" rx="8.9" ry="8.9"/>
		<path class="st4" d="M465.56,432.75H336.99V190.19h28.97l0,0c2.46,7.88,9.4,13.2,17.21,13.2h36.2c7.81,0,14.74-5.31,17.2-13.19
			l0-0.01h28.98V432.75z"/>
		<path class="st4" d="M460.81,447.62H340.85c-7.83,0-14.19-6.37-14.19-14.19V187.21c0-7.83,6.37-14.19,14.19-14.19h119.96
			c7.83,0,14.19,6.37,14.19,14.19v246.21C475,441.25,468.63,447.62,460.81,447.62z M340.85,174.1c-7.23,0-13.11,5.88-13.11,13.11
			v246.21c0,7.23,5.88,13.11,13.11,13.11h119.96c7.23,0,13.11-5.88,13.11-13.11V187.21c0-7.23-5.88-13.11-13.11-13.11H340.85z"/>
		<g>
			<g>
				<g>
					<path class="st3" d="M459.02,362.63H342.64c-0.3,0-0.54-0.24-0.54-0.54v-90.25c0-0.3,0.24-0.54,0.54-0.54h116.38
						c0.3,0,0.54,0.24,0.54,0.54v90.25C459.56,362.38,459.31,362.63,459.02,362.63z M343.18,361.54h115.3v-89.17h-115.3V361.54z"/>
				</g>
			</g>
			<g>
				<g>
					<rect x="342.64" y="212.65" class="st0" width="116.38" height="52.68"/>
				</g>
			</g>
			<g>
				<g>
					<rect x="342.64" y="368.59" class="st0" width="116.38" height="52.68"/>
				</g>
			</g>
			<g>
				<path class="st3" d="M447.3,285.19h-52.46c-0.3,0-0.54-0.24-0.54-0.54c0-0.3,0.24-0.54,0.54-0.54h52.46
					c0.3,0,0.54,0.24,0.54,0.54C447.84,284.95,447.6,285.19,447.3,285.19z"/>
				<path class="st3" d="M447.3,295.86h-61.31c-0.3,0-0.54-0.24-0.54-0.54c0-0.3,0.24-0.54,0.54-0.54h61.31
					c0.3,0,0.54,0.24,0.54,0.54C447.84,295.62,447.6,295.86,447.3,295.86z"/>
				<path class="st3" d="M447.3,306.53h-61.31c-0.3,0-0.54-0.24-0.54-0.54c0-0.3,0.24-0.54,0.54-0.54h61.31
					c0.3,0,0.54,0.24,0.54,0.54C447.84,306.29,447.6,306.53,447.3,306.53z"/>
			</g>
		</g>
		<path class="st5" d="M200.8,235.73c-5.34-11.22-9.43-17.29-16.59-19.79c-9.61-3.37-18.91,2.91-19.87,3.57
			c-0.61,0.43-9.7,5.98-10.22,16.68c-0.37,7.71,2.24,15.36,7.16,21.05c3.39,3.93,3.93,9.57,1.28,14.03l-16.69,28.06
			c0.76,7.46,7.43,12.9,14.89,12.14l1.69-0.17c7.46-0.76,22.37-6.5,21.61-13.96l13.12-29.86c4.69-0.88,8.3-2.63,9.56-5.18
			C208.99,257.72,207.08,248.94,200.8,235.73z"/>
		<path class="st6" d="M197.36,267.62c-0.03,0-0.06,0-0.1-0.01l-5.77-1.05c-0.29-0.05-0.49-0.33-0.43-0.63
			c0.05-0.29,0.33-0.49,0.63-0.44l5.77,1.05c0.29,0.05,0.49,0.33,0.43,0.63C197.84,267.44,197.61,267.62,197.36,267.62z"/>
		<path class="st6" d="M187.87,251.41c-0.13,0-0.26-0.05-0.36-0.14c-0.72-0.64-1.36-1.24-2.03-1.86c-0.55-0.51-1.11-1.03-1.75-1.6
			c-0.22-0.2-0.24-0.54-0.04-0.76c0.2-0.22,0.54-0.24,0.76-0.04c0.64,0.58,1.21,1.1,1.76,1.61c0.66,0.61,1.3,1.21,2.02,1.84
			c0.22,0.2,0.24,0.54,0.04,0.76C188.17,251.35,188.02,251.41,187.87,251.41z"/>
		<path class="st6" d="M140.12,242.77c-1.96-5.91,1.24-12.29,7.15-14.26c0.01,0,0.02-0.01,0.03-0.01c-0.93-0.99-1.67-2.19-2.12-3.56
			c-1.69-5.09,1.06-10.59,6.15-12.28c1.06-0.35,2.14-0.5,3.2-0.49c-1.33-4.93,1.39-10.11,6.3-11.74c2.78-0.92,5.67-0.51,8,0.86
			c0.92-3.61,3.6-6.68,7.39-7.94c5.74-1.91,11.92,1.04,14.09,6.61c0.27-0.12,0.54-0.22,0.82-0.32c5.09-1.69,10.59,1.06,12.28,6.15
			c1.69,5.09-1.06,10.59-6.15,12.28c-0.15,0.05-0.3,0.08-0.44,0.12c2.28,9.21-6.9,13.37-7.42,13.7c2.42,3.77,4.83,7.54,7.25,11.31
			c-1.43,0.96-3.1,2.21-4.53,3.17c-2.32-4.03-4.57-5.16-7.12-4.8c-4.02,0.56-6.45,5.19-5.59,9.03c0.78,3.51,3.16,6.67,7.02,7.52
			c-3.82,1.34-7.86,2.62-12.12,3.83c-2.22,0.63-4.4,1.2-6.53,1.73c-1.54-0.42-11.49-3.32-16.5-13.21
			C146.37,250.67,141.74,247.65,140.12,242.77z"/>
		<path class="st7" d="M99.46,244.07c0,0,21.74,12.72,39.37,21.02c17.41,8.19,93.23,51.75,93.23,51.75l-21.05,71.31l-31.25,75.17
			C118.69,443.51,67.7,398.68,44.41,342.79L68.27,300L99.46,244.07z"/>
		<g>
			<g>
				
					<rect x="228.27" y="314.64" transform="matrix(-0.2451 0.9695 -0.9695 -0.2451 729.0925 161.2171)" class="st6" width="147.03" height="99.63"/>
			</g>
			
				<ellipse transform="matrix(0.8589 -0.5122 0.5122 0.8589 -144.0811 206.0094)" class="st8" cx="301.78" cy="364.45" rx="11.25" ry="11.25"/>
		</g>
		<path class="st5" d="M365.15,387.16c-0.7-1.79-2.48-3.04-4.57-3.31c0.19-0.16,2.73-2.44,2.26-5.83c-0.36-2.58-2.31-4.73-4.93-5.42
			c1.19-2.24,1.31-4.74,0.17-6.53c-3.42-5.37-21.74,2.11-30.42,5.38c-3.83,1.44-36.43,14.24-59.07,23.15l-2.34-10.82
			c-22.54,7.81-48.74,14.84-48.74,14.84c4.66,27.53,15.23,40.77,15.23,40.77l0,0c10.16,11.74,23.51,11.14,30.21,9.19
			c17.28-5.02,32.59-10.93,65.4-27.26c13.97-6.95,25.25-13.46,32.97-16.37c2.41-1.57,3.68-4.25,3.23-6.78
			c-0.41-2.28-2.07-3.6-2.55-3.96C364.87,392.8,366.11,389.63,365.15,387.16z"/>
		<path class="st6" d="M254.38,400.51c-0.22,0-0.43-0.13-0.51-0.35c-0.1-0.28,0.04-0.59,0.32-0.69c4.12-1.53,13.21-4.98,21.99-8.32
			c8.79-3.34,17.88-6.79,22-8.32c0.28-0.1,0.59,0.04,0.69,0.32c0.1,0.28-0.04,0.59-0.32,0.69c-4.12,1.53-13.21,4.98-21.99,8.32
			c-8.79,3.34-17.88,6.79-22,8.32C254.51,400.5,254.44,400.51,254.38,400.51z"/>
		<path class="st6" d="M346.86,373.98c-0.23,0-0.45-0.15-0.52-0.38l-1.18-3.91c-0.09-0.29,0.07-0.59,0.36-0.67
			c0.29-0.09,0.59,0.07,0.67,0.36l1.18,3.91c0.09,0.29-0.07,0.59-0.36,0.67C346.96,373.97,346.91,373.98,346.86,373.98z"/>
		<path class="st6" d="M349.88,383.89c-0.23,0-0.45-0.15-0.52-0.38l-1.18-3.91c-0.09-0.29,0.07-0.59,0.36-0.67
			c0.29-0.09,0.59,0.07,0.67,0.36l1.18,3.91c0.09,0.29-0.07,0.59-0.36,0.67C349.98,383.88,349.93,383.89,349.88,383.89z"/>
		<path class="st6" d="M353.06,393.95c-0.23,0-0.45-0.15-0.52-0.38l-1.18-3.91c-0.09-0.29,0.07-0.59,0.36-0.67
			c0.29-0.09,0.59,0.07,0.67,0.36l1.18,3.91c0.09,0.29-0.07,0.59-0.36,0.67C353.17,393.94,353.11,393.95,353.06,393.95z"/>
		<path class="st6" d="M355.76,403.13c-0.23,0-0.45-0.15-0.52-0.38l-1.18-3.91c-0.09-0.29,0.07-0.59,0.36-0.67
			c0.29-0.09,0.59,0.07,0.67,0.36l1.18,3.91c0.09,0.29-0.07,0.59-0.36,0.67C355.87,403.12,355.82,403.13,355.76,403.13z"/>
		<path class="st7" d="M208.65,409.82l67.73-22.14c0,0-3.19-50.35-56.26-77.95c-33.74-17.55-26.65,80.19-26.65,80.19L208.65,409.82z
			"/>
		<path class="st6" d="M202.91,399.22c-0.19,0-0.37-0.1-0.47-0.27l-9.85-17.29c-0.15-0.26-0.06-0.59,0.2-0.74
			c0.26-0.15,0.59-0.06,0.74,0.2l9.85,17.29c0.15,0.26,0.06,0.59-0.2,0.74C203.09,399.2,203,399.22,202.91,399.22z"/>
		<path class="st5" d="M109.24,204.51c0,0,30.88-25.03,51.85-31.01c41.93-11.96,50.31-28.02,46.54-31.41
			c-4.09-3.67-10.13,2.7-14.67,5.4c0.24-0.88,0.44-3.59-1.52-5.47c-2.9-2.79-5.79-1.43-6.11-1.41c0.11-0.29,1.17-3.45-0.47-5.62
			c-1.85-2.45-4.4-3.06-6.66-2.62c0.24-0.73,0.85-3.53-0.79-5.57c-1.69-2.1-4.63-2.52-7.19-1.88c-12.21,3.05-21.46,4.65-27.95,7.49
			c-12.77,5.59-56.33,24.38-72.27,37.47c-10.61,11.01,0.6,30.49,17.4,36.91C97.98,210.81,109.24,204.51,109.24,204.51z"/>
		<g>
			<path class="st6" d="M169.86,133.82c-0.16,0-0.31-0.07-0.42-0.2l-2.75-3.39c-0.19-0.23-0.15-0.57,0.08-0.76
				c0.23-0.19,0.57-0.15,0.76,0.08l2.75,3.39c0.19,0.23,0.15,0.57-0.08,0.76C170.1,133.78,169.98,133.82,169.86,133.82z"/>
			<path class="st6" d="M176.81,142.45c-0.15,0-0.3-0.06-0.41-0.19l-3.22-3.74c-0.19-0.23-0.17-0.57,0.06-0.76
				c0.23-0.19,0.57-0.17,0.76,0.06l3.22,3.74c0.19,0.23,0.17,0.57-0.06,0.76C177.06,142.41,176.94,142.45,176.81,142.45z"/>
			<path class="st6" d="M183.86,150.53c-0.16,0-0.31-0.07-0.42-0.2c-0.51-0.63-0.97-1.2-1.44-1.76c-0.47-0.57-0.94-1.14-1.45-1.77
				c-0.19-0.23-0.15-0.57,0.08-0.76c0.23-0.19,0.57-0.15,0.76,0.08c0.51,0.63,0.98,1.2,1.44,1.77c0.47,0.57,0.93,1.14,1.44,1.77
				c0.19,0.23,0.15,0.57-0.08,0.76C184.1,150.49,183.98,150.53,183.86,150.53z"/>
			<path class="st6" d="M188.89,157.87c-0.17,0-0.34-0.08-0.44-0.23l-2.48-3.54c-0.17-0.24-0.11-0.58,0.13-0.75
				c0.24-0.17,0.58-0.11,0.75,0.13l2.48,3.54c0.17,0.24,0.11,0.58-0.13,0.75C189.11,157.84,189,157.87,188.89,157.87z"/>
		</g>
		<path class="st5" d="M113.23,194.12v59.7l-55.11,27.92c-1.04-35.42-0.65-74.54,8.07-104.76L113.23,194.12z"/>
		<path class="st7" d="M59.35,316.94c-6.14-21.45-6.14-63.11-6.14-63.11l62.89-22.31l6.48,25.39L59.35,316.94z"/>
		<path class="st6" d="M59.35,317.48c-0.11,0-0.22-0.03-0.32-0.11c-0.24-0.18-0.29-0.52-0.11-0.76l19.44-26.27
			c0.18-0.24,0.52-0.29,0.76-0.11c0.24,0.18,0.29,0.52,0.11,0.76l-19.44,26.27C59.68,317.4,59.52,317.48,59.35,317.48z"/>
	</g>
</g>
</svg>
