<?xml version="1.0" encoding="utf-8"?>
<!-- Generator: Adobe Illustrator 24.0.1, SVG Export Plug-In . SVG Version: 6.00 Build 0)  -->
<svg version="1.1" id="Layer_1" xmlns="http://www.w3.org/2000/svg" xmlns:xlink="http://www.w3.org/1999/xlink" x="0px" y="0px"
	 viewBox="0 0 500 500" style="enable-background:new 0 0 500 500;" xml:space="preserve">
<style type="text/css">
	.st0{fill:#D0EEFE;}
	.st1{fill:none;stroke:#263238;stroke-linejoin:round;stroke-miterlimit:10;}
	.st2{fill:#7F8284;stroke:#263238;stroke-miterlimit:10;}
	.st3{fill:none;stroke:#263238;stroke-linecap:round;stroke-linejoin:round;stroke-miterlimit:10;}
	.st4{fill:#C9C9C9;stroke:#263238;stroke-linejoin:round;stroke-miterlimit:10;}
	.st5{fill:none;stroke:#263238;stroke-miterlimit:10;}
	.st6{fill:#FFFFFF;stroke:#263238;stroke-linejoin:round;stroke-miterlimit:10;}
	.st7{fill:#FFFFFF;stroke:#263238;stroke-miterlimit:10;}
	.st8{fill:#263238;stroke:#263238;stroke-linejoin:round;stroke-miterlimit:10;}
	.st9{fill:#263238;}
	.st10{fill:none;stroke:#263238;stroke-width:3;stroke-linejoin:round;stroke-miterlimit:10;}
	.st11{fill:#71C3EA;stroke:#000000;stroke-miterlimit:10;}
	.st12{fill:#FFFFFF;stroke:#263238;stroke-width:1;stroke-linejoin:round;stroke-miterlimit:9.9997;}
	.st13{fill:#70C1E8;}
	.st14{fill:#050606;}
	.st15{fill:#70C1E7;}
	.st16{fill:#050607;}
	.st17{fill:#BEE4FE;}
</style>
<g id="Background_Simple">
</g>
<g id="Table">
</g>
<g id="Plant">
</g>
<g id="Paper_2">
</g>
<g id="Character">
</g>
<g id="Device">
</g>
<g id="Papers_1">
</g>
<g id="Lamp">
</g>
<g id="Picture">
</g>
<g id="Thought_Bubble">
</g>
<g id="Light_Bulb">
</g>
<path class="st0" d="M470.9,249.9c-4.9,41.6-23.9,90-61.9,112.2c-57.3,33.6-52.5,85.2-164.4,107.7c-17.4,3.5-34,5-49.6,4.7
	c-8.4-0.2-16.5-0.8-24.4-2C99.5,462.1,51.7,412.7,34.1,353c-23.1-78.5,23-129.9,53.6-160.8s53-127.4,162.8-150.4
	c16.7-3.5,33.9-5.3,51-4.8c39.1,1,81.7,13.8,111.2,40.6c2.2,2,4.4,4.1,6.5,6.3C460.2,125.9,477.6,193.2,470.9,249.9z"/>
<line class="st1" x1="19.7" y1="389.4" x2="480.3" y2="389.4"/>
<g>
	<path class="st2" d="M113.8,368.1c0,0-0.7-2.9-2.4-6.9c-0.4-1-3.1-4.6-3.6-5.4c-1.7-2.2-3.6-3.3-3.6-3.3s7,2.7,9.7,7.3
		c0,0-0.3-5.3-2-9.4s-5.7-7.9-5.7-7.9s6.2,2.4,7.9,5.2s2.9,9.1,2.9,9.1s-1.2-9.5-0.5-13.9s4.8-13.1,4.8-13.1s-0.5,11.5-0.5,17
		s-0.3,8.3-0.3,8.3s0.4-5.3,3.6-7.1c2.5-1.4,6.5-0.4,6.5-0.4s-3.8,1.6-5.3,4.6c-1.9,3.7-3.3,9-2.6,8.4c0,0,3.1-2,6-2.2
		c1.8-0.1,4,1.2,4,1.2s-8.6,2-9.6,8.3L113.8,368.1L113.8,368.1z"/>
	<g>
		<path class="st2" d="M121.9,365.6c0,0,0.3-6.5-1.8-8.5s-4.3-1.2-5.3,0.8s0.2,6.7,0.2,6.7s1.4-2.4,2.1-2.4s0.8,3.4,0.8,3.4"/>
		<path class="st3" d="M117.1,362.2c0,0,1.4-1.8,2.9-1c1.4,0.8,0.8,2.2,0.8,2.2"/>
	</g>
	<g>
		<polygon class="st4" points="126.4,398.5 110.6,398.5 103.9,393.9 110.6,366.1 126.4,366.1 132.8,392.6 		"/>
		<polyline class="st5" points="110.6,366.1 122.4,379.4 126.4,366.1 		"/>
		<polyline class="st5" points="103.9,393.9 124.3,393.5 122.4,379.4 		"/>
	</g>
	<polyline class="st5" points="132.8,392.6 124.3,393.5 110.6,398.5 	"/>
	<line class="st5" x1="124.3" y1="393.5" x2="126.4" y2="398.5"/>
</g>
<polygon class="st6" points="283.6,388.8 207.7,394 261.9,405.8 332.1,397 "/>
<path class="st6" d="M243.5,282.8c0,0-28.7,12.2-38.5,16.1s-14.3,7.3-16.1,18.2c-1.8,10.8-7.3,47.6-7.3,47.6s1.4,8.7,9.1,11.5
	c7.7,2.8,11.2,1.8,11.2,1.8l1.4,11.5h104.9l7-34.6l19.6,31.8l27.6-0.7c0,0-0.7-15-10.8-30.8c-10.1-15.7-18.5-27.6-18.5-27.6
	s-6.5-26-17.5-29.4c-6.4-1.9-22.7-8-26.9-9.8c-4.2-1.8-12.3-5.5-12.3-5.5L243.5,282.8z"/>
<path class="st2" d="M333,327.5c0,0-6.5-26-17.5-29.4c-6.4-1.9-22.7-8-26.9-9.8c-4.2-1.8-12.3-5.5-12.3-5.5l-32.8-0.1
	c0,0-28.7,12.2-38.5,16.1s-14.3,7.3-16.1,18.2c-0.6,3.6-1.6,10-2.7,17c2.4-0.9,5.6-1.7,9.4-1.6c8.4,0.2,12.3,1.8,12.3,1.8l-6.1,43.6
	l1.4,11.5h104.9l7-34.6l1.3,2.1c1.1-3.6,6.7-18.3,22.6-20.5C335.4,330.9,333,327.5,333,327.5z"/>
<path class="st5" d="M280.5,285.8c0,0,1.6,10.2-0.3,21.8"/>
<path class="st5" d="M277,302.8c0,0-1.9,5.9-5.4,14"/>
<line class="st5" x1="315" y1="352.1" x2="316.9" y2="327.3"/>
<line class="st5" x1="313.4" y1="324.1" x2="313.4" y2="339.2"/>
<path class="st7" d="M239.4,268.4l0.2,20.1c0,0,2.8,23.2,19.5,25.1c16.7,2,17.1-30.7,17.1-30.7l-3.5-13.9c0,0-3,9.1-16.7,6.7
	C242.5,273.4,239.4,268.4,239.4,268.4z"/>
<path class="st8" d="M267.1,275.9l0.1-1.1c-2.5,1.2-6.1,1.8-11,1c-13.6-2.4-16.7-7.4-16.7-7.4l0.2,20.1c0,0,0.4,3.3,1.8,7.4
	C246.5,290.8,267.1,275.9,267.1,275.9z"/>
<g>
	<g>
		<path class="st6" d="M230.8,253.2c0,0,4.3,15.8,7.1,18.2s16,11.9,26.2,8.2c10.2-3.7,13.4-19,13.4-22.7c0-3.7-2.6-19.3-2.6-19.3
			s-1.1-11.7-2.2-15.1c-1.1-3.5-3.3-8.2-11.7-10.4s-15.4,0-18,1.7s-14.9,21.9-14.9,21.9L230.8,253.2z"/>
		<polyline class="st5" points="256.8,229.9 260.9,240.4 255.7,243.9 		"/>
		<path class="st5" d="M244.2,253.7c0,0,1.7-6.1,6.3-6.1s5,5,5,5"/>
		<line class="st5" x1="236.9" y1="234.6" x2="251.1" y2="231.4"/>
		<path class="st5" d="M257.9,227.3c0,0,2-6.9,8.4-5.8"/>
		<ellipse class="st9" cx="245.9" cy="236" rx="1.7" ry="2.1"/>
		<ellipse class="st9" cx="263.5" cy="230.8" rx="1.7" ry="2.1"/>
	</g>
	<path class="st8" d="M256.8,214.7l-6.5-0.4c0,0-1.7,6.9-3,8.7c-1.3,1.7-2.2-2.2-2.2-2.2s3.9-1.5-5.8,8s-11,6.9-11,6.9
		s1.1,11.5,1.7,13.2s0.9,4.3,0.9,4.3s-4.6-1.9-6.5-3.7c-1.9-1.7-1.9-5.8-1.9-5.8s-7.4,2.6-6.5-0.4s5.2-6.7,5.2-6.7s-6.7-1.9-6.5-3.9
		s5.6-1.5,6.3-1.9s8.7-26.2,16.7-26.6s12.6,1.7,12.6,1.7s-5.6-5.8-1.9-5.2c3.7,0.6,8.4,8,8.7,8.7c0.2,0.6,5.4-7.8,10.8-4.8
		s0.6,4.8,0.6,4.8s5.2,3.3,6.3,10.8c1.1,7.6,0.2,15.4,0.2,15.4s-3.3-12.3-6.9-16.2C264.1,215.4,256.8,214.7,256.8,214.7z"/>
	<path class="st6" d="M230.8,253.2c0,0-5-3.5-6.7-0.9s-1.7,5.2,3.3,8.9s6.5,2.6,6.5,2.6L230.8,253.2z"/>
	<path class="st7" d="M275.6,240.4c0,0,2.6-4.8,5-0.9c2.4,3.9-3.3,14.3-3.3,14.3L275.6,240.4z"/>
</g>
<g>
	<path class="st6" d="M232.7,249.1c0,0-1.1,8.2,0,12.1s5.8,15.1,5.8,18.6s-0.2,14.7-0.2,14.7s-42.9,45.2-50.2,56.5
		s-7.6,16.7-5.8,20.8c1.7,4.1,5.8,16.2,11.3,16.2c5.4,0,20.6-10,22.9-14.7s32.9-73.6,32.9-73.6s3.7-2.8,4.3-6.3s-0.4-14.9-0.4-14.9
		l5,1.5c0,0,1.3,6.3,3,6.5s2.4-4.5,2.4-4.5s1.1-6.5,0.4-7.1c-0.6-0.6-3.9-4.8-3.9-4.8s-1.7-5.2-2.8-6.7s-4.1-1.1-4.1-1.1
		s-1.9-2-3.5-1.5c-1.5,0.4-11,5.2-11,5.2s-2.2-7.1-1.9-8.7c0.2-1.5-0.6-4.8-1.3-6.3C234.9,249.5,234.3,247.2,232.7,249.1z"/>
	<line class="st5" x1="253.3" y1="262.3" x2="243.2" y2="268.2"/>
	<path class="st5" d="M260.2,270.1c0,0-3.1-2.8-5-2.1s-7.4,4.4-7.4,4.4"/>
	<path class="st5" d="M250.8,274.7c0,0,5.5-1.3,7.2-0.1c1.8,1.3,5.1,3.4,5.5,6.1"/>
</g>
<g>
	<path class="st6" d="M261.5,375.4c0,0-11-0.5-11.9,1.2s-3.1,10.7-3.4,12.6c-0.4,1.9,2.4,2.4,4,0.7s6-7.4,6-7.4L261.5,375.4z"/>
	<path class="st6" d="M268.6,356L250,389.9l3.1,0.5l18-33c0.4-0.8,0.1-1.8-0.8-2.1l0,0C269.7,355.1,269,355.4,268.6,356z"/>
	<g>
		<path class="st6" d="M357.1,368.3c0,0,3.8,2.7,5.7,5.7s5.1,14.3,5.1,19.1s-35.3,5.7-44.8,5.7s-34.2-3.8-34.2-3.8
			s-10.5,2.7-14.6,2.7s-11.9,0-14.3-0.8s-7-1.6-7-1.6s-4.3,1.9-5.7,0.3s2.7-7.3,4.3-10.5s11.1-12.4,14-13.5c3-1.1,27,8.6,27,8.6
			s22.9-3,32.6-6.5s16.4-4.3,18.6-4.3"/>
		<path class="st5" d="M253,395.3c0,0,1.9-5.5,3.4-6.7s13.6-9.5,13.6-9.5"/>
		<path class="st5" d="M258.5,396.1c0,0,3.3-4.1,6.4-5.5s8.6-3.8,8.6-3.8"/>
		<path class="st5" d="M266.5,397.7c0,0,7.1-4,10.2-4.7"/>
	</g>
</g>
<g>
	<polygon class="st6" points="367,419.3 296.5,404.8 392.7,401.1 452.7,409.9 	"/>
	<polygon class="st8" points="373.3,415.9 330.3,407 391.6,403.7 437.1,409.4 	"/>
	<g>
		<polygon class="st4" points="386.6,345.5 367,419.3 452.7,409.9 474.3,341.5 		"/>
		<path class="st8" d="M431.9,376.7c0,3.1-3.3,5.6-7.3,5.6s-7.3-2.5-7.3-5.6s3.3-5.6,7.3-5.6S431.9,373.6,431.9,376.7z"/>
		<path class="st8" d="M464.8,371.7c-18.1,10-35,10.3-53.1,16.9c-24.8,9-44.7,30.8-44.7,30.8l85.8-9.4L464.8,371.7z"/>
	</g>
</g>
<g>
	<polygon class="st6" points="116.9,405.9 110.9,400.4 97.2,404.2 89.7,422.4 106.4,430.4 118.9,427.9 122.4,415.2 	"/>
	<polyline class="st1" points="116.9,405.9 107.7,406.2 98.7,414.4 100.4,425.6 112.9,427.4 119.4,416.7 109.4,411.2 105.4,414.7 
		115.9,419.1 	"/>
	<polyline class="st1" points="105.4,414.7 100.7,422.1 107.9,423.1 	"/>
	<path class="st6" d="M110.9,400.4l4.5,1l5,4.3l4.3,4.8c0,0,2.3,6,1.5,7s-2,5-2,5l-4.3,1.5l2.5-8.7l-5.5-9.2L110.9,400.4z"/>
</g>
<g>
	<polygon class="st6" points="243.7,432.7 248.9,439 263,437.4 273.1,420.4 257.7,410 245,410.7 239.6,422.8 	"/>
	<polyline class="st1" points="243.7,432.7 252.9,433.8 263,427 262.9,415.6 250.8,412.1 242.8,421.7 251.9,428.6 256.4,425.8 
		246.7,419.8 	"/>
	<polyline class="st1" points="256.4,425.8 262.2,419 255.2,417 	"/>
	<path class="st6" d="M248.9,439l-4.3-1.6l-4.3-4.9l-3.5-5.3c0,0-1.3-6.3-0.5-7.1c0.9-0.9,2.7-4.6,2.7-4.6l4.4-0.9l-3.8,8.3l4.1,10
		L248.9,439z"/>
</g>
<g>
	<path class="st6" d="M150.6,398.9l-12.1,6c0,0,0,9.4,0,9.9c0,0.6,0.4,5,0.4,5l10.3,6.8l10.3-0.8l7.2-3.8l3.8-5.6l1.8-3.8
		c0,0,0.4-6.4,0.6-7c0.2-0.6-0.6-5.2-0.6-5.8c0-0.6-2.8-5.2-2.8-5.2l-6.8,0.6l-3.4-0.4L150.6,398.9z"/>
	<path class="st1" d="M150.6,398.9l7.6,7l2.6,7c0,0-5.4,6.2-6.2,6.4c-0.8,0.2-5,1.6-6.2,1s-8.4-7-8.4-7s2.4-6.8,3-7.2
		C143.7,405.6,150.6,398.9,150.6,398.9z"/>
	<polygon class="st1" points="150.6,398.9 159.4,394.9 165.2,400.4 169.9,408.4 169.1,414.6 165.2,420.7 157.4,423.3 148.5,420.1 
		156,419.3 160.8,412.8 158.2,405.8 	"/>
	<polyline class="st1" points="158.2,405.8 149.6,406 151.6,412 151.4,414.2 148.5,420.1 	"/>
</g>
<g>
	<path class="st6" d="M435.7,408.2l-11.1,5.5c0,0,0,8.5,0,9.1c0,0.5,0.4,4.5,0.4,4.5l9.5,6.2l9.5-0.7l6.5-3.5l3.5-5.1l1.6-3.5
		c0,0,0.4-5.8,0.5-6.4c0.2-0.5-0.5-4.7-0.5-5.3s-2.5-4.7-2.5-4.7l-6.2,0.5l-3.1-0.4L435.7,408.2z"/>
	<path class="st1" d="M435.7,408.2l6.9,6.4l2.4,6.4c0,0-4.9,5.6-5.6,5.8s-4.5,1.5-5.6,0.9c-1.1-0.5-7.6-6.4-7.6-6.4s2.2-6.2,2.7-6.5
		C429.3,414.4,435.7,408.2,435.7,408.2z"/>
	<polygon class="st1" points="435.7,408.2 443.7,404.5 448.9,409.6 453.3,416.9 452.6,422.5 448.9,428.2 441.9,430.5 433.7,427.6 
		440.6,426.9 444.9,420.9 442.6,414.5 	"/>
	<polyline class="st1" points="442.6,414.5 434.8,414.7 436.6,420.2 436.4,422.2 433.7,427.6 	"/>
</g>
<g>
	<polygon class="st6" points="202.9,406.8 187.4,422.8 189.1,427 195.7,431.3 208,434.8 215.7,428.2 214.3,417 214,412.8 
		215.4,410.5 206,404.5 	"/>
	<path class="st1" d="M214,412.8l-4.4,5.5l1.5,5.3l-8,3.3l-2.4,3.3c0,0-9.5-4.6-10.2-5"/>
	<polyline class="st1" points="200.6,430.1 207.9,432.5 213.4,425.5 211.9,418.3 	"/>
	<path class="st6" d="M214.1,415.3l4.6,1.5l4.1,10.4c0,0-1.6,4.6-1.9,5.2c-0.3,0.6-7.9,4.6-7.9,4.6l-10.8,1.6c0,0-4.7-1.3-4.9-2.1
		c-0.1-0.7-11.7-5.6-11.7-5.6l3.4-3.8l6.6,4.3l12.3,3.4l7.7-6.6L214.1,415.3z"/>
	<polyline class="st1" points="214.3,417 219.1,424.3 217.1,430.4 215.3,434.5 197.4,436.5 	"/>
</g>
<path class="st8" d="M78.3,383.9H44.6v10H86v-2.3C86,387.4,82.5,383.9,78.3,383.9z"/>
<line class="st10" x1="88.1" y1="282.7" x2="60.5" y2="367.3"/>
<polygon class="st8" points="48.7,383.9 60.5,362.8 70.8,383.9 "/>
<path class="st8" d="M64.9,362.8c0-2.5-2-4.5-4.5-4.5s-4.5,2-4.5,4.5s2,4.5,4.5,4.5S64.9,365.3,64.9,362.8z"/>
<path class="st8" d="M92.9,283.7c0-2.5-2-4.5-4.5-4.5s-4.5,2-4.5,4.5s2,4.5,4.5,4.5S92.9,286.2,92.9,283.7z"/>
<line class="st10" x1="88.4" y1="283.7" x2="140.6" y2="272"/>
<polygon class="st11" points="178.3,287.3 150.9,305.6 140.8,275.9 154.5,266.7 "/>
<rect x="136.2" y="261" transform="matrix(0.8301 -0.5576 0.5576 0.8301 -124.1094 125.8591)" class="st12" width="16.6" height="11.2"/>
<g>
	<rect x="47.6" y="91.5" class="st5" width="115.9" height="156"/>
	<rect x="52.4" y="98.1" class="st5" width="106.2" height="143"/>
	<rect x="77.8" y="132.3" class="st5" width="55.4" height="74.6"/>
</g>
<g>
	<path class="st8" d="M186.1,116.2c-3.3-15.2,7.5-30.5,24.2-34.1c1.1-0.3,2.3-0.4,3.4-0.6c-1.8-13.2,6.8-25.9,20.1-28.8
		c5-1.1,10-0.7,14.5,1c3.4-7.5,10.2-13.3,18.9-15.2c7.6-1.7,15.1,0,21.1,4c3.8-7,10.7-12.4,19.3-14.3c11.6-2.5,23,2,29.3,10.6
		c4.4-4.3,10.3-7.6,17.1-9.1c16.9-3.7,33.1,4.9,36.2,19.2c1.1,4.8,0.5,9.7-1.3,14.1c18-0.1,33.5,10.1,36.9,25.6
		c2.5,11.3-2.1,22.8-11.2,31.1c1.4,2.1,2.5,4.6,3.1,7.2c2.7,12.1-5.9,24.3-19.1,27.2c-4.2,0.9-8.3,0.8-12.1-0.2
		c-0.1,14.2-10.8,27.2-26.3,30.6c-11.1,2.4-22.1-0.6-29.6-7.3c-3.4,5.8-9.7,10.5-17.5,12.2c-11.6,2.6-22.8-2.1-27.2-10.7
		c-1.1,0.4-2.2,0.7-3.4,0.9c-13.1,2.9-25.5-2.6-28.5-12.2c-3.7,2.9-8.2,5.1-13.1,6.2c-17,3.7-33.8-6.6-37.4-23.1
		c-1.1-5-0.9-10.1,0.5-14.7C195,132.6,188.2,125.5,186.1,116.2z"/>
	<ellipse class="st8" cx="305.2" cy="206.4" rx="13.1" ry="8.1"/>
	<ellipse class="st8" cx="296.1" cy="225.9" rx="8.1" ry="4.7"/>
</g>
<g>
	<path class="st7" d="M183.4,114.2c-3.3-15.2,7.5-30.5,24.2-34.1c1.1-0.3,2.3-0.4,3.4-0.6c-1.8-13.2,6.8-25.9,20.1-28.8
		c5-1.1,10-0.7,14.5,1c3.4-7.5,10.2-13.3,18.9-15.2c7.6-1.7,15.1,0,21.1,4c3.8-7,10.7-12.4,19.3-14.3c11.6-2.5,23,2,29.3,10.6
		c4.4-4.3,10.3-7.6,17.1-9.1c16.9-3.7,33.1,4.9,36.2,19.2c1.1,4.8,0.5,9.7-1.3,14.1c18-0.1,33.5,10.1,36.9,25.6
		c2.5,11.3-2.1,22.8-11.2,31.1c1.4,2.1,2.5,4.6,3.1,7.2c2.7,12.1-5.9,24.3-19.1,27.2c-4.2,0.9-8.3,0.8-12.1-0.2
		c-0.1,14.2-10.8,27.2-26.3,30.6c-11.1,2.4-22.1-0.6-29.6-7.3c-3.4,5.8-9.7,10.5-17.5,12.2c-11.6,2.6-22.8-2.1-27.2-10.7
		c-1.1,0.4-2.2,0.7-3.4,0.9c-13.1,2.9-25.5-2.6-28.5-12.2c-3.7,2.9-8.2,5.1-13.1,6.2c-17,3.7-33.8-6.6-37.4-23.1
		c-1.1-5-0.9-10.1,0.5-14.7C192.3,130.5,185.4,123.4,183.4,114.2z"/>
	<ellipse class="st7" cx="302.5" cy="204.4" rx="13.1" ry="8.1"/>
	<ellipse class="st7" cx="293.4" cy="223.9" rx="8.1" ry="4.7"/>
</g>
<g>
	<path class="st13" d="M284.2,71.7c0.5-0.4,0.8-1,1.2-1.5c0.5,0.2,1.1,0.3,1.5-0.2c0.4-0.5,0.2-1-0.2-1.5c0.5-0.4,0.8-1,1.5-1.2
		c0.7,0.4,1.3,0.1,1.9-0.4c6.4-5.2,13.7-7.1,21.8-5.7c12,2.1,20.9,12.1,21.8,24.5c0.8,11.7-6.1,22.5-17.2,26.6c-2,0.7-2.2,1-2.2,3.2
		c0,3.2,0.1,6.3-0.1,9.5c-0.2,3.9-4.1,6.8-8,6.1c-3.6-0.6-5.9-3.4-6-7.2c0-3.1,0-6.1,0-9.1c0-2.8,0.6-5.3,1.9-7.8
		c2.1-4,5.5-6.4,9.6-7.9c5.7-2.1,9-8.3,7.8-14.2c-1.4-6.4-7.1-10.5-13.7-9.9c-6.1,0.6-10.8,5.9-11,12.3c-0.1,4.1-3.2,7.2-7.2,7.1
		c-3.9-0.1-7-3.2-6.9-7.4c0.1-4.9,1.3-9.4,3.9-13.6C284.8,73,285,72.4,284.2,71.7z M310.2,116.2c0,1.1,0,2,0,2.9
		c0,0.5,0.2,0.7,0.6,0.9c0.5,0.1,0.8-0.1,1.1-0.5c0.2-0.3,0.2-0.6,0.2-1.1c0-1.3,0-2.6,0-3.9c0-1.8,1-3.2,2.6-3.7
		c4.7-1.5,8.6-4.3,11.6-8.2c4.4-5.6,6.1-11.9,5-18.9c-0.9-6.2-4-11.3-8.8-15.4c-5.7-4.7-12.4-6.4-19.7-5.3c-6.2,1-11.3,4.1-15.3,9.1
		c-3.4,4.4-5.1,9.3-5.3,14.9c0,0.7,0.2,1.1,1,1.2c0.8,0,1.1-0.5,1-1.1c-0.1-1.1,0.1-2.3,0.3-3.3c1-5.6,3.6-10.3,8.1-13.9
		c5.4-4.4,11.6-5.9,18.4-4.7c5,0.9,9.2,3.3,12.6,7.1c4.8,5.3,6.8,11.5,5.7,18.4c-1.5,8.7-6.5,14.9-14.9,18c-1.8,0.6-3.2,1.7-3.9,3.4
		C310,113.7,310.3,115,310.2,116.2z M312.2,123.6c0-0.8-0.2-1.4-1.1-1.5c-0.6-0.1-1.1,0.6-1.1,1.7c0,0.7,0.2,1.5,1.1,1.5
		C312.1,125.1,312.2,124.3,312.2,123.6z"/>
	<path class="st14" d="M284.2,71.7c0.7,0.6,0.5,1.2,0.1,1.9c-2.5,4.1-3.8,8.7-3.9,13.6c-0.1,4,3,7.3,6.9,7.4c4,0.1,7.1-3,7.2-7.1
		c0.2-6.4,4.9-11.7,11-12.3c6.6-0.6,12.3,3.5,13.7,9.9c1.3,5.9-2,12.1-7.8,14.2c-4.2,1.5-7.5,4-9.6,7.9c-1.3,2.4-1.9,5.1-1.9,7.8
		c0,3.1,0,6.1,0,9.1c0.1,3.8,2.3,6.6,6,7.2c3.9,0.6,7.8-2.2,8-6.1c0.2-3.2,0.1-6.3,0.1-9.5c0-2.2,0.2-2.4,2.2-3.2
		c11.1-4.1,18.1-14.9,17.2-26.6c-0.9-12.5-9.8-22.3-21.8-24.5c-8.1-1.5-15.4,0.5-21.8,5.7c-0.6,0.5-1.1,0.8-1.9,0.4
		c-0.5-0.8-0.2-1.3,0.4-1.9c15.9-13.4,40.7-5.6,46,14.6c3.8,14.2-3.8,29-17.6,34.1c-0.7,0.2-1,0.6-1,1.4c0,3.1,0.1,6.2-0.1,9.3
		c-0.2,4.7-4.3,8.3-8.9,8.3c-4.6,0-8.8-3.6-9-8.3c-0.2-4.9-0.6-9.7,0.4-14.5c1.4-6.2,5.2-10.6,11.1-12.9c3.6-1.4,6.2-3.6,7.4-7.2
		c1.9-5.7-1.8-12-7.6-13.3c-6-1.4-11.9,2.6-12.8,8.6c-0.2,1.1-0.2,2.3-0.3,3.3c-0.9,4.6-5,7.7-9.6,7.4c-4.5-0.3-8.3-4.3-8.3-8.9
		c-0.1-5.4,1.4-10.5,4.2-15.1C283.1,71.9,283.5,71.6,284.2,71.7z"/>
	<path class="st15" d="M313.1,144.4c0.4,0.5,0.8,1,1.1,1.6c-0.7,0.6-0.4,1.3-0.2,2c0.8,2.8-0.3,5.9-2.8,7.6c-2.4,1.7-5.7,1.7-8.1,0
		c-2.4-1.7-3.5-4.8-2.8-7.6c1-3.4,4-5.5,7.6-5.1c0.7,0.1,1.5,0.2,1.9-0.6c0.6,0.2,1.1,0.5,1.7,0.8c-0.2,0.5-0.2,1.1,0.2,1.4
		C312.2,144.8,312.6,144.7,313.1,144.4z M306.9,154.8c2,0.1,3.4-0.8,4.5-2.4c0.3-0.5,0.4-1.1-0.2-1.5c-0.5-0.3-1.1-0.2-1.5,0.4
		c-0.6,0.9-1.4,1.5-2.5,1.5c-0.8,0-1.5-0.2-2.2-0.7c-0.5-0.4-1.1-0.6-1.5,0c-0.5,0.6-0.2,1.2,0.4,1.7
		C304.8,154.4,305.8,154.9,306.9,154.8z M309.8,146c-0.6-0.1-0.9,0.4-0.8,1c0.1,0.7,0.6,1.2,1.1,1.7c0.5,0.4,1.3,0.1,1.5-0.6
		C311.8,147.4,310.7,146,309.8,146z"/>
	<path class="st16" d="M309.8,142.2c-0.5,0.8-1.2,0.6-1.9,0.6c-3.6-0.3-6.6,1.7-7.6,5.1c-0.8,2.8,0.3,5.9,2.8,7.6
		c2.4,1.7,5.7,1.7,8.1,0s3.6-4.8,2.8-7.6c-0.2-0.7-0.5-1.4,0.2-2c0.9-0.2,1.3,0.2,1.6,1.1c1.1,3.4,0,7.3-2.8,9.6
		c-2.8,2.3-6.7,2.8-10,1.2c-3.2-1.6-5.3-5.1-4.9-8.7c0.4-5.4,5.2-9.2,10.5-8.3C309.4,141,309.8,141.3,309.8,142.2z"/>
	<path class="st16" d="M286.7,68.7c0.4,0.4,0.6,0.9,0.2,1.5c-0.4,0.5-0.9,0.4-1.5,0.2c-0.3-0.5-0.5-1-0.1-1.5
		C285.8,68.4,286.3,68.4,286.7,68.7z"/>
	<path class="st16" d="M313.1,144.4c-0.4,0.3-0.9,0.4-1.3,0.1c-0.5-0.4-0.4-0.9-0.2-1.4c0.5-0.3,1-0.6,1.5-0.1
		C313.4,143.4,313.3,143.9,313.1,144.4z"/>
	<path class="st17" d="M310.2,116.2c0.1-1.1-0.2-2.5,0.4-3.9c0.8-1.8,2.2-2.8,3.9-3.4c8.4-3.2,13.4-9.2,14.9-18
		c1.1-7-0.9-13.2-5.7-18.4c-3.4-3.8-7.6-6.2-12.6-7.1c-6.8-1.2-12.9,0.3-18.4,4.7c-4.5,3.6-7,8.3-8.1,13.9c-0.2,1.1-0.3,2.2-0.3,3.3
		c0,0.7-0.2,1.1-1,1.1c-0.8,0-1-0.5-1-1.2c0.1-5.5,1.8-10.5,5.3-14.9c3.9-5,9.1-8.2,15.3-9.1c7.3-1.1,13.9,0.5,19.7,5.3
		c4.9,4,7.8,9.1,8.8,15.4c1.1,7-0.6,13.4-5,18.9c-3.1,3.9-6.9,6.6-11.6,8.2c-1.7,0.6-2.6,1.9-2.6,3.7c0,1.3,0,2.6,0,3.9
		c0,0.4-0.1,0.7-0.2,1.1c-0.2,0.4-0.6,0.6-1.1,0.5c-0.4-0.1-0.6-0.4-0.6-0.9C310.2,118.2,310.2,117.3,310.2,116.2z"/>
	<path class="st17" d="M312.2,123.6c-0.1,0.7-0.1,1.5-1.1,1.6c-0.9,0-1.1-0.7-1.1-1.5c0-1.1,0.5-1.8,1.1-1.7
		C312,122.2,312.2,122.8,312.2,123.6z"/>
	<path class="st17" d="M306.9,154.8c-1.1,0.1-2.1-0.3-3.1-1c-0.6-0.5-0.9-1.1-0.4-1.7c0.5-0.6,1.1-0.4,1.5,0
		c0.6,0.6,1.4,0.6,2.2,0.7c1.1,0,1.9-0.6,2.5-1.5c0.4-0.6,0.9-0.6,1.5-0.4c0.6,0.3,0.6,1,0.2,1.5C310.3,154,309,154.9,306.9,154.8z"
		/>
	<path class="st17" d="M309.8,146c0.9,0,1.9,1.4,1.8,2.2c-0.2,0.6-1,1-1.5,0.6c-0.5-0.5-1.1-1-1.1-1.7
		C309,146.4,309.2,145.9,309.8,146z"/>
</g>
</svg>
